<svg width="203" height="64" viewBox="0 0 203 64" fill="none" xmlns="http://www.w3.org/2000/svg" class="upv-logo">
    <path fill-rule="evenodd" clip-rule="evenodd" d="M20.7472 21.2394C20.5362 20.8175 20.8175 20.1845 20.8175 20.1845C21.1691 20.0438 21.7318 20.1142 21.9428 20.5361C22.1538 21.0284 21.9428 21.3801 21.3801 21.7317C21.3801 21.7317 21.0988 21.5911 20.7472 21.2394Z" fill="#111111"></path> <path fill-rule="evenodd" clip-rule="evenodd" d="M36.3604 47.9649L33.1252 50.5671V23.9121H36.3604V47.9649Z" fill="#111111"></path> <path fill-rule="evenodd" clip-rule="evenodd" d="M38.4705 45.644V23.9121H41.143V40.5099C40.6507 42.0572 39.8067 43.7451 38.4705 45.644Z" fill="#111111"></path> <path fill-rule="evenodd" clip-rule="evenodd" d="M27.8506 48.1758L31.0858 50.778V23.9121H27.8506V48.1758Z" fill="#111111"></path> <path fill-rule="evenodd" clip-rule="evenodd" d="M26.022 46.4176V23.9121H23.1384V41.6352C23.2088 42.8308 25.3187 45.855 26.022 46.4176Z" fill="#111111"></path> <path d="M32 54.2242C19.7626 54.2242 9.77582 44.2374 9.77582 32C9.77582 19.6923 19.6923 9.77582 32 9.77582C44.2374 9.77582 54.2242 19.7626 54.2242 32C54.2242 44.2374 44.2374 54.2242 32 54.2242V54.9978C44.6594 54.9978 54.9978 44.6593 54.9978 32C54.9978 19.3407 44.6594 9.0022 32 9.0022C19.3407 9.0022 9.0022 19.3407 9.0022 32C9.0022 44.6593 19.3407 54.9978 32 54.9978V54.2242Z" fill="#111111"></path> <path d="M32 62.9451C14.9099 62.9451 1.05495 49.0901 1.05495 32C1.05495 14.9099 14.9099 1.05495 32 1.05495C49.0901 1.05495 62.9451 14.9099 62.9451 32C62.9451 49.0198 49.0198 62.9451 32 62.9451V63.9297C49.6528 63.9297 64 49.5824 64 31.9297C63.9297 14.3473 49.5824 0 32 0C14.3473 0 0 14.3473 0 32C0 49.6527 14.3473 64 32 64V62.9451Z" fill="#111111"></path> <path fill-rule="evenodd" clip-rule="evenodd" d="M5.62646 41.0021C6.32976 41.7054 6.68141 42.1274 7.03306 43.0417C7.38471 43.8153 7.45504 44.3779 7.52537 45.2219L9.07262 44.5186C8.50998 43.8856 8.15834 43.4637 7.80669 42.69C7.38471 41.7758 7.24405 41.2131 7.17372 40.2988L5.62646 41.0021Z" fill="#111111"></path> <path fill-rule="evenodd" clip-rule="evenodd" d="M5.48577 44.5187C6.18907 43.8154 6.61104 43.4637 7.52533 43.1121C8.29896 42.7604 8.8616 42.6901 9.70555 42.6198L9.00226 41.0725C8.36929 41.6351 7.94731 41.9868 7.17368 42.3384C6.32972 42.6901 5.76709 42.8308 4.78247 42.9011L5.48577 44.5187Z" fill="#111111"></path> <path fill-rule="evenodd" clip-rule="evenodd" d="M58.3033 41.0021C57.6001 41.7054 57.2484 42.1274 56.8968 43.0417C56.5451 43.8153 56.4748 44.3779 56.4044 45.2219L54.7869 44.5186C55.3495 43.8856 55.7011 43.4637 56.0528 42.69C56.4044 41.7758 56.6154 41.2131 56.6154 40.2988L58.3033 41.0021Z" fill="#111111"></path> <path fill-rule="evenodd" clip-rule="evenodd" d="M58.3736 44.5187C57.6703 43.8154 57.2483 43.4637 56.334 43.1121C55.5604 42.7604 54.9978 42.6901 54.1538 42.6198L54.8571 41.0725C55.4901 41.6351 55.9121 41.9868 56.6857 42.3384C57.6 42.7604 58.1626 42.8308 59.0769 42.9714L58.3736 44.5187Z" fill="#111111"></path> <path fill-rule="evenodd" clip-rule="evenodd" d="M19.4813 54.1539C19.9033 53.9429 20.1143 54.1539 20.1846 54.0132C20.255 53.9429 20.1846 53.8725 20.044 53.8022C19.9033 53.6616 19.6923 53.5912 19.5517 53.4506C19.411 53.3099 19.2703 53.1692 19.1297 53.0286C19.0594 52.9583 18.9187 52.8176 18.8484 52.9583C18.7077 53.1692 19.411 53.3802 18.989 53.9429C18.9187 54.0132 18.778 54.2242 18.2857 54.5055L16.1758 55.7011C16.1055 55.7011 16.0352 55.7715 16.0352 55.7715C15.9649 55.7715 16.0352 55.6308 16.0352 55.5605L16.8088 53.1692C16.9495 52.6769 17.0901 52.3956 17.2308 52.1846C17.4418 51.9736 17.6528 52.255 17.7934 52.1143C17.8638 52.044 17.8638 51.9736 17.6528 51.833C17.5824 51.7626 17.3714 51.6923 17.0198 51.411C16.8088 51.2703 16.6681 51.0594 16.4572 50.9187C16.3868 50.8484 16.2462 50.6374 16.1055 50.778C16.1055 50.8484 16.1055 50.9187 16.1055 50.9187C16.3165 51.1297 16.3165 51.2703 16.2462 51.5517L14.9802 55.9824C14.9099 56.3341 14.9099 56.4044 14.9802 56.4747C15.0506 56.5451 15.1209 56.5451 15.2616 56.4044L19.4813 54.1539Z" fill="#111111"></path> <path fill-rule="evenodd" clip-rule="evenodd" d="M25.0375 56.4043C25.1781 55.8417 25.6001 56.2636 25.6704 55.9823C25.6704 55.912 25.6704 55.912 25.5298 55.8417C25.4594 55.8417 25.3188 55.8417 24.7561 55.701C24.4748 55.6307 24.1232 55.49 23.8418 55.4197C23.7012 55.4197 23.6309 55.4197 23.5605 55.49C23.4902 55.7713 24.3342 55.7713 24.1935 56.334L23.3495 59.7098C23.1385 60.5537 22.7166 60.0614 22.6462 60.4131C22.6462 60.4834 22.6462 60.4834 22.7869 60.5537C23.1385 60.6241 23.4199 60.6944 23.6309 60.7647C23.9825 60.8351 24.3342 60.9757 25.3891 61.257C25.9517 61.3977 26.5144 60.9054 26.655 60.3428C26.655 60.2021 26.655 60.2021 26.5847 60.2021C26.3034 60.1318 26.1627 61.1164 24.4748 60.6944C23.9825 60.5537 24.0528 60.3428 24.1935 59.8504L25.0375 56.4043Z" fill="#111111"></path> <path fill-rule="evenodd" clip-rule="evenodd" d="M29.0461 57.2483C29.1164 56.756 29.1164 56.756 29.9604 56.8263C31.2966 56.8966 30.734 57.7406 31.0153 57.7406C31.156 57.7406 31.156 57.5296 31.156 57.3889V56.6856C31.156 56.6153 31.0856 56.545 31.0153 56.545C30.3823 56.4746 29.89 56.4746 29.3977 56.4746C28.3428 56.4043 27.8505 56.334 27.5691 56.334C27.4988 56.334 27.4285 56.4043 27.4285 56.4746C27.4285 56.756 28.2021 56.6153 28.1318 57.2483L27.9208 60.6944C27.8505 61.6087 27.3582 61.1867 27.3582 61.468C27.3582 61.5384 27.4285 61.5384 27.4988 61.5384C27.8505 61.5384 28.2021 61.5384 28.4131 61.5384C28.7648 61.5384 29.1867 61.6087 30.2417 61.679C30.8043 61.7494 31.2966 61.1164 31.2966 60.5538C31.2966 60.4131 31.2263 60.4131 31.2263 60.4131C30.945 60.4131 31.0153 61.3274 29.2571 61.2571C28.7647 61.1867 28.8351 60.9757 28.8351 60.4834L28.9054 59.5691C28.9054 59.1472 28.9054 59.0768 29.2571 59.0768H29.7494C30.4527 59.1472 30.2417 59.9208 30.4527 59.9208C30.5933 59.9208 30.5933 59.6395 30.5933 59.5691L30.6637 58.2329C30.6637 58.0219 30.5933 58.0219 30.523 58.0219C30.3823 58.0219 30.312 58.6549 29.7494 58.6549H29.3274C29.0461 58.6549 29.0461 58.5845 29.0461 58.2329V57.2483Z" fill="#111111"></path> <path fill-rule="evenodd" clip-rule="evenodd" d="M32.7737 60.8351C32.844 61.6087 32.1407 61.5384 32.2111 61.8197C32.2111 61.9604 32.3517 61.89 32.422 61.89C32.633 61.89 32.7737 61.8197 32.9847 61.8197C33.1957 61.8197 33.477 61.8197 33.8286 61.7494C33.899 61.7494 34.11 61.7494 34.11 61.6087C34.11 61.2571 33.266 61.8197 33.1253 60.4131L32.9144 57.9516C32.9144 57.8813 32.9144 57.8109 32.9847 57.8109C32.9847 57.8109 33.055 57.8109 33.1253 57.8813L36.7825 61.3977C36.8528 61.4681 36.8528 61.4681 36.9935 61.4681C37.0638 61.4681 37.0638 61.3977 37.0638 61.2571L36.7122 57.178C36.6418 56.4043 37.2748 56.545 37.2045 56.334C37.2045 56.334 37.2045 56.2637 37.0638 56.2637C36.9935 56.2637 36.7825 56.334 36.2902 56.334C35.7979 56.4043 35.5869 56.334 35.5166 56.4043C35.4462 56.4043 35.3759 56.4747 35.4462 56.545C35.4462 56.756 36.2902 56.6153 36.3605 57.2483L36.5715 59.7098C36.5715 59.9208 36.5715 59.9911 36.5715 59.9911C36.5012 59.9911 36.4308 59.9208 36.3605 59.8505L33.266 56.8966C33.1253 56.756 33.1957 56.6856 32.9847 56.756C32.633 56.756 32.422 56.8263 32.2814 56.8263C32.1407 56.8263 32.0001 56.8263 31.8594 56.8263C31.7891 56.8263 31.7188 56.8966 31.7188 56.967C31.7188 57.3186 32.4924 56.756 32.633 58.1626L32.7737 60.8351Z" fill="#111111"></path> <path fill-rule="evenodd" clip-rule="evenodd" d="M41.4243 55.2087C41.4243 55.1384 41.3539 55.2087 41.3539 55.2087C41.2836 55.2087 41.3539 55.4901 41.2133 55.4901C41.0023 55.5604 40.3693 55.2791 39.5957 55.5604C37.9078 56.0527 37.6968 57.811 38.0484 59.0066C38.1891 59.5692 39.033 61.2571 41.0023 60.6945C42.4089 60.2725 42.8309 59.0066 42.6902 58.7252C42.6902 58.6549 42.6199 58.6549 42.5495 58.6549C42.3385 58.7253 42.1979 59.7802 41.1429 60.0615C39.877 60.4835 38.8924 59.2176 38.6111 58.2329C38.3297 57.3187 38.5407 56.123 39.5253 55.8417C40.299 55.6307 41.0726 56.0527 41.6352 56.6153C41.7056 56.6857 41.7759 56.8263 41.9166 56.8263C42.0572 56.756 41.9869 56.6153 41.9166 56.545L41.4243 55.2087Z" fill="#111111"></path> <path fill-rule="evenodd" clip-rule="evenodd" d="M43.4637 54.7165C43.112 54.0836 43.745 54.0836 43.6044 53.8726C43.534 53.8022 43.534 53.8022 43.323 53.8726C42.9714 54.0836 42.7604 54.2242 42.5494 54.2945C42.3384 54.4352 42.0571 54.5055 41.8461 54.6462C41.7758 54.6462 41.6351 54.7165 41.7054 54.8572C41.8461 55.0682 42.4087 54.5055 42.7604 55.1385L44.4483 58.233C44.8 58.866 44.2373 58.9363 44.378 59.1473C44.378 59.1473 44.4483 59.2176 44.5186 59.2176C44.6593 59.1473 44.9406 58.9363 45.222 58.7956C45.7143 58.5143 45.9252 58.444 46.2066 58.3033C46.3472 58.233 46.4176 58.1627 46.3472 58.0924C46.2066 57.8814 45.7143 58.5847 45.2923 57.7407L43.4637 54.7165Z" fill="#111111"></path> <path fill-rule="evenodd" clip-rule="evenodd" d="M3.5166 28.9757C3.09462 28.7647 3.16495 28.5537 3.02429 28.4834C2.88364 28.4834 2.88364 28.5537 2.88364 28.6944C2.88364 28.835 2.88364 29.046 2.88364 29.1867C2.88364 29.3274 2.81331 29.5383 2.81331 29.679C2.81331 29.7493 2.74298 29.89 2.88364 29.9603C3.16495 29.9603 2.95396 29.3977 3.58693 29.3977C3.72759 29.3977 3.93858 29.468 4.43089 29.679L6.61111 30.734C6.68144 30.734 6.75177 30.8043 6.75177 30.8043C6.75177 30.8746 6.61111 30.8746 6.61111 30.8746L4.14957 31.4373C3.65726 31.5076 3.30561 31.5779 3.09462 31.5779C2.81331 31.5779 2.95396 31.2263 2.74298 31.1559C2.60232 31.1559 2.60232 31.1559 2.60232 31.3669C2.60232 31.4373 2.60232 31.6482 2.60232 31.9999C2.60232 32.2109 2.53199 32.4219 2.53199 32.5625C2.53199 32.6329 2.46166 32.8438 2.60232 32.8438C2.67265 32.8438 2.67265 32.7735 2.74298 32.7735C2.81331 32.5625 2.95396 32.4922 3.23528 32.4219L7.66605 31.3669C8.0177 31.2966 8.08803 31.2263 8.08803 31.1559C8.08803 31.0856 8.08803 31.0856 7.87704 30.9449L3.5166 28.9757Z" fill="#111111"></path> <path fill-rule="evenodd" clip-rule="evenodd" d="M6.9627 28.4836C7.666 28.6242 7.45501 29.1869 7.73633 29.2572C7.87699 29.2572 7.87699 29.1869 7.87699 29.1166C7.94732 28.9759 7.94732 28.7649 7.94732 28.6242C8.01764 28.4133 8.08797 28.2023 8.1583 27.9913C8.1583 27.921 8.22863 27.7803 8.08797 27.7803C7.73633 27.71 8.08797 28.5539 6.68138 28.2023L4.21984 27.6396C4.14951 27.6396 4.07918 27.5693 4.07918 27.5693C4.07918 27.5693 4.14951 27.499 4.21984 27.499L8.58028 25.6001C8.65061 25.6001 8.72094 25.5297 8.72094 25.4594C8.72094 25.3891 8.65061 25.3891 8.50995 25.3188L4.50116 24.4045C3.72754 24.2638 4.00885 23.7715 3.79786 23.7012C3.79786 23.7012 3.72754 23.7012 3.65721 23.7715C3.65721 23.8418 3.65721 24.0528 3.51655 24.4045C3.44622 24.8264 3.37589 24.9671 3.30556 25.0374C3.30556 25.1078 3.37589 25.1781 3.37589 25.1781C3.58688 25.2484 3.65721 24.4748 4.29017 24.6858L6.68138 25.2484C6.89237 25.3188 6.9627 25.3188 6.9627 25.3188C6.9627 25.3891 6.82204 25.3891 6.75171 25.4594L3.09457 27.0067C2.95391 27.077 2.88358 27.0067 2.88358 27.2177C2.81325 27.499 2.81325 27.71 2.74292 27.8506C2.81325 27.921 2.81325 27.9913 2.74292 28.1319C2.74292 28.2023 2.81325 28.2726 2.81325 28.2726C3.1649 28.3429 2.81325 27.5693 4.21984 27.921L6.9627 28.4836Z" fill="#111111"></path> <path fill-rule="evenodd" clip-rule="evenodd" d="M5.06374 22.3649C4.43077 22.1539 4.78242 21.8023 4.57143 21.7319C4.5011 21.7319 4.43077 21.7319 4.43077 21.8726C4.36044 22.2242 4.29011 22.4352 4.21978 22.5759C4.14945 22.7869 4.07912 22.9979 4.00879 23.2089C4.00879 23.2792 3.93846 23.4198 4.07912 23.4198C4.29011 23.4902 4.36044 22.7869 4.99341 22.9979L8.36923 24.1231C9.0022 24.3341 8.72088 24.6858 8.93187 24.7561C9.0022 24.7561 9.0022 24.7561 9.0022 24.6858C9.07253 24.5451 9.07253 24.2638 9.21319 24.0528C9.35385 23.6308 9.42418 23.4198 9.49451 23.2089C9.56484 23.0682 9.49451 22.9979 9.42418 22.9979C9.21319 22.9275 9.35385 23.6308 8.43956 23.3495L5.06374 22.3649Z" fill="#111111"></path> <path fill-rule="evenodd" clip-rule="evenodd" d="M6.75175 18.145C6.4001 17.7934 6.54076 17.6527 6.4001 17.5824C6.25944 17.5121 6.25944 17.6527 6.18911 17.7231C6.11879 17.8637 6.04846 18.0044 6.04846 18.2154C5.97813 18.356 5.9078 18.4967 5.83747 18.6373C5.83747 18.7077 5.69681 18.8483 5.83747 18.9187C6.04846 19.0593 6.04846 18.356 6.68142 18.6373C6.82208 18.7077 7.03307 18.778 7.38472 19.1297L9.07263 20.7472C9.14296 20.8176 9.21329 20.8176 9.21329 20.8879H9.07263L6.61109 20.6066C6.11878 20.5362 5.76714 20.4659 5.62648 20.3956C5.34516 20.2549 5.55615 19.9736 5.41549 19.9033C5.27483 19.8329 5.27483 19.9033 5.2045 20.0439C5.06384 20.2549 5.06384 20.3956 4.92318 20.7472C4.85285 20.9582 4.71219 21.0989 4.64186 21.3099C4.64186 21.3802 4.5012 21.5209 4.64186 21.5912C4.71219 21.5912 4.78252 21.5912 4.78252 21.5209C4.92318 21.3099 5.06384 21.3099 5.34516 21.3099L9.84626 21.7319C10.1979 21.7319 10.2682 21.7319 10.2682 21.6615C10.2682 21.5912 10.2682 21.5912 10.1276 21.4505L6.75175 18.145Z" fill="#111111"></path> <path fill-rule="evenodd" clip-rule="evenodd" d="M7.94718 16.6682C7.5252 16.3869 7.5252 16.3869 7.94718 15.7539C8.58015 14.7693 9.00213 15.6836 9.21312 15.4023C9.28345 15.2616 9.07246 15.1913 9.00213 15.1209L8.36916 14.7693C8.29883 14.699 8.2285 14.699 8.15817 14.7693C7.87685 15.1913 7.66586 15.5429 7.45488 15.8946C6.96257 16.6682 6.68125 16.9495 6.61092 17.1605C6.54059 17.2308 6.61092 17.3012 6.68125 17.3715C6.82191 17.5825 7.0329 16.8792 7.59553 17.2308L10.4791 19.1297C11.2527 19.622 10.6197 19.7627 10.9714 19.9737C11.0417 19.9737 11.0417 19.9737 11.112 19.9034C11.323 19.622 11.3933 19.4111 11.534 19.2704C11.6747 18.9891 11.8856 18.7078 12.378 18.0045C12.6593 17.5825 12.3076 16.9495 11.8153 16.6682C11.6747 16.5979 11.6747 16.5979 11.6747 16.5979C11.534 16.8089 12.378 17.2308 11.6043 18.4968C11.3933 18.8484 11.1823 18.7078 10.7604 18.4264L9.98674 17.9341C9.63509 17.7231 9.56477 17.6528 9.70542 17.4418L9.91641 17.0902C10.2681 16.5979 10.8307 17.1605 10.901 16.9495C10.9714 16.8089 10.7604 16.7385 10.69 16.6682L9.56477 15.9649C9.42411 15.8946 9.35378 15.8946 9.35378 15.9649C9.28345 16.0352 9.84608 16.4572 9.56477 16.8792L9.35378 17.1605C9.21312 17.3715 9.14279 17.3715 8.9318 17.1605L7.94718 16.6682Z" fill="#111111"></path> <path fill-rule="evenodd" clip-rule="evenodd" d="M15.3319 13.7846C15.4726 13.9253 15.4726 13.9253 15.6132 13.855C15.9649 13.7143 16.2462 13.644 16.5275 13.433C17.0901 12.9407 17.0901 12.0967 16.4572 11.3231C15.8242 10.6198 15.3319 10.6198 14.6286 10.7605C13.7143 10.9715 13.433 11.0418 13.1517 10.6901C12.8 10.3385 12.8704 9.91652 13.1517 9.70553C13.9253 9.07256 14.8396 10.0572 14.9802 9.98685C15.0506 9.91652 15.0506 9.84619 14.9099 9.70553L14.2066 9.00223C14.066 8.86157 14.066 8.79125 13.9956 8.86158C13.9253 8.9319 13.9253 9.07256 13.855 9.14289C13.7143 9.28355 13.3627 9.21322 13.011 9.49454C12.4484 9.91652 12.5187 10.6901 13.0813 11.3231C13.5737 11.8857 13.9956 11.8857 14.5583 11.8154C15.6132 11.6044 15.9649 11.4638 16.3868 11.8857C16.7385 12.3077 16.7385 12.8 16.3868 13.1517C15.8945 13.5737 15.1912 13.2923 14.5583 12.8704C14.4879 12.8 14.4176 12.8 14.3473 12.8C14.2066 12.8704 14.4176 13.011 14.4879 13.0814L15.3319 13.7846Z" fill="#111111"></path> <path fill-rule="evenodd" clip-rule="evenodd" d="M16.1054 8.22853C15.6834 7.66589 16.2461 7.59556 16.1054 7.38458C16.0351 7.31425 16.0351 7.31425 15.8944 7.45491C15.6131 7.66589 15.4725 7.80655 15.2615 7.94721C15.1208 8.08787 14.9098 8.1582 14.6988 8.29886C14.6285 8.29886 14.5582 8.36919 14.6285 8.50985C14.7692 8.72084 15.1911 8.1582 15.6131 8.72084L17.6527 11.6044C18.0747 12.167 17.5823 12.2373 17.723 12.4483L17.7933 12.5186C17.934 12.4483 18.145 12.2373 18.2856 12.0967C18.6373 11.8153 18.8483 11.745 19.0593 11.6044C19.1999 11.534 19.1999 11.4637 19.1296 11.3934C18.9889 11.1824 18.6373 11.8857 18.145 11.1121L16.1054 8.22853Z" fill="#111111"></path> <path fill-rule="evenodd" clip-rule="evenodd" d="M36.5012 3.79785C36.5715 3.4462 36.7122 3.37587 36.9232 3.37587C37.8374 3.51653 37.6968 4.57147 37.6265 4.78246C37.5561 4.99345 37.4155 5.76708 36.7122 5.62642C36.5715 5.62642 36.5012 5.55609 36.4309 5.55609C36.3605 5.55609 36.3605 5.62642 36.3605 5.69675C36.3605 5.69675 36.3605 5.90774 36.9232 5.97807C37.6265 6.11873 38.2594 5.62642 38.4001 4.71213C38.6111 3.65719 37.9078 3.16488 37.2045 3.02422C36.7825 2.95389 36.3605 2.88356 36.2902 2.88356C35.8682 2.88356 35.5166 2.81323 35.5166 2.81323C35.3759 2.81323 35.3056 2.88356 35.3056 2.95389C35.2353 3.23521 35.9386 3.02422 35.7979 3.79785L35.2353 6.96268C35.0946 7.87697 34.6726 7.59565 34.6023 7.80664C34.6023 7.9473 34.6726 7.9473 34.6726 7.9473C34.743 7.9473 35.1649 8.01763 35.3759 8.01763C35.5166 8.01763 35.7276 8.08796 36.1495 8.15829C36.2199 8.15829 36.2902 8.22862 36.2902 8.08796C36.3605 7.80664 35.7276 8.01763 35.8682 7.10334L36.5012 3.79785Z" fill="#111111"></path> <path fill-rule="evenodd" clip-rule="evenodd" d="M41.4241 4.14952C40.0878 3.72754 38.9626 4.57149 38.3999 6.11875C37.9076 7.52534 38.3296 8.72094 39.4549 9.14292C41.2131 9.77589 42.1274 8.15831 42.479 7.17369C42.9714 5.62644 42.479 4.50116 41.4241 4.14952ZM41.7054 7.17369C41.2834 8.29897 40.6505 9.14292 39.7362 8.8616C38.7516 8.50995 38.8922 6.9627 39.2439 5.97809C39.5955 4.99347 40.2285 4.07919 41.1428 4.43083C41.8461 4.57149 42.2681 5.62644 41.7054 7.17369Z" fill="#111111"></path> <path fill-rule="evenodd" clip-rule="evenodd" d="M44.6594 6.25934C44.9408 5.76703 45.1517 6.18901 45.2924 5.90769C45.3627 5.83736 45.2924 5.83736 45.2221 5.76703C45.1517 5.6967 45.0814 5.6967 44.5891 5.48571C44.3781 5.41538 44.0968 5.20439 43.8858 5.06373C43.7452 4.9934 43.6748 4.9934 43.6748 5.06373C43.5342 5.27472 44.2375 5.41538 43.9561 5.97802L42.3386 9.14285C41.9166 9.91648 41.7056 9.35384 41.5649 9.70549C41.5649 9.77582 41.5649 9.77582 41.6353 9.84615C41.9166 9.98681 42.1276 10.0571 42.3386 10.1978C42.6199 10.3385 42.9012 10.5494 43.6748 10.9011C44.0968 11.1121 44.6594 10.7604 44.9408 10.1978C45.0111 10.0571 45.0111 10.0571 44.9408 10.0571C44.7298 9.98681 44.3781 10.8308 43.1122 10.1978C42.7605 9.98681 42.9012 9.77582 43.1122 9.35384L44.6594 6.25934Z" fill="#111111"></path> <path fill-rule="evenodd" clip-rule="evenodd" d="M47.8241 8.22863C48.246 7.66599 48.457 8.08797 48.5977 7.87698C48.668 7.80665 48.5977 7.80665 48.457 7.66599C48.1757 7.455 47.9647 7.38467 47.8241 7.24402C47.6834 7.10336 47.4724 6.9627 47.2614 6.82204C47.1911 6.82204 47.1208 6.68138 47.0504 6.82204C46.9098 7.03303 47.5428 7.24402 47.1911 7.80665L45.2219 10.7605C44.7999 11.3231 44.5889 10.9715 44.4482 11.1825C44.4482 11.1825 44.3779 11.2528 44.4482 11.3231C44.5889 11.3935 44.7999 11.5341 45.0109 11.6748C45.3625 11.9561 45.5735 12.0968 45.7142 12.1671C45.8548 12.2374 45.8548 12.2374 45.9252 12.1671C46.0658 11.9561 45.2922 11.8858 45.8548 11.1121L47.8241 8.22863Z" fill="#111111"></path> <path fill-rule="evenodd" clip-rule="evenodd" d="M47.6131 12.3781C47.0505 13.0814 46.7692 12.3781 46.5582 12.589C46.4879 12.7297 46.5582 12.8 46.6285 12.8704C46.8395 13.011 46.9802 13.0814 47.2615 13.3627C47.5428 13.5737 47.6835 13.7143 47.8944 13.9253C48.0351 13.9956 48.1054 14.1363 48.2461 13.9956C48.3868 13.855 47.6835 13.5737 48.1758 12.8L50.2153 10.1978C50.4263 9.91652 50.4966 9.91652 50.7076 10.0572L51.1296 10.3385C51.6923 10.7605 51.0593 11.2528 51.2 11.3934C51.3406 11.4638 51.4109 11.2528 51.4813 11.1121L51.8329 10.5495C51.9032 10.4792 51.9032 10.4088 51.9032 10.3385C51.4813 9.98685 51.1296 9.77586 50.4967 9.28356C49.7934 8.72092 49.512 8.50993 49.0901 8.15828C49.0197 8.08795 48.9494 8.15828 48.8791 8.22861L48.1758 8.93191C48.1054 9.00224 47.9648 9.1429 48.1054 9.21323C48.3164 9.35389 48.7384 8.50993 49.301 8.93191L49.723 9.21323C49.934 9.35389 49.934 9.42422 49.723 9.70553L47.6131 12.3781Z" fill="#111111"></path> <path fill-rule="evenodd" clip-rule="evenodd" d="M52.677 12.3781C53.0287 12.0264 53.099 12.0264 53.521 12.5891C54.2946 13.433 53.3803 13.644 53.521 13.855C53.5913 13.9253 53.8023 13.7847 53.8726 13.7143L54.3649 13.222C54.4352 13.1517 54.4352 13.0814 54.3649 13.011C54.0133 12.6594 53.732 12.3781 53.4506 12.0264C52.8177 11.3935 52.6067 11.0418 52.3957 10.8308C52.3254 10.7605 52.255 10.7605 52.1847 10.8308C51.9737 11.0418 52.6067 11.3231 52.1144 11.8154L49.5825 14.1363C48.9495 14.7693 48.8792 14.1363 48.6682 14.3473C48.6682 14.3473 48.5979 14.4176 48.6682 14.488C48.8792 14.699 49.0902 14.9099 49.2309 15.0506C49.4418 15.2616 49.6528 15.5429 50.2858 16.1759C50.6375 16.5275 51.2704 16.3869 51.6924 15.9649C51.7627 15.8946 51.7627 15.8242 51.7627 15.8242C51.6221 15.6836 50.9891 16.3869 49.9342 15.3319C49.6528 15.0506 49.8638 14.8396 50.2155 14.5583L50.9188 13.9253C51.2001 13.644 51.2704 13.5737 51.4814 13.7847L51.7627 14.1363C52.1847 14.5583 51.4814 14.9803 51.6221 15.1209C51.6924 15.1913 51.9034 15.0506 51.9737 14.9803L52.888 14.066C53.0287 13.9253 52.9583 13.855 52.9583 13.855C52.888 13.7847 52.3957 14.2066 52.044 13.855L51.7627 13.5737C51.6221 13.3627 51.6221 13.3627 51.8331 13.1517L52.677 12.3781Z" fill="#111111"></path> <path fill-rule="evenodd" clip-rule="evenodd" d="M57.0373 16.9495V16.8792C56.967 16.8088 56.756 16.9495 56.756 16.8792C56.6857 16.7385 56.756 16.1055 56.4044 15.5429C55.5604 14.3473 53.8725 14.6989 52.8879 15.4022C52.3956 15.7539 50.989 17.0198 51.9736 18.4264C52.6769 19.4814 53.9428 19.3407 54.1538 19.2C54.2242 19.2 54.2242 19.1297 54.1538 19.0594C54.0835 18.9187 53.0285 19.1297 52.5362 18.3561C51.9033 17.4418 52.8176 16.2462 53.7318 15.6132C54.5758 15.0506 55.7011 14.9099 56.1231 15.6132C56.4747 16.1759 56.2637 16.9495 55.8417 17.5825C55.7714 17.6528 55.7011 17.7934 55.7011 17.8638C55.7714 17.9341 55.9121 17.8638 55.9121 17.7934L57.0373 16.9495Z" fill="#111111"></path> <path fill-rule="evenodd" clip-rule="evenodd" d="M54.0835 19.9034C53.3802 20.2551 53.3099 19.6221 53.0286 19.7628C52.8879 19.8331 53.0286 19.9034 53.0286 19.9737C53.0989 20.1144 53.1692 20.2551 53.2396 20.3957C53.3099 20.6067 53.3802 20.7474 53.5209 21.0287C53.5209 21.099 53.5912 21.2397 53.7319 21.1694C54.0132 21.0287 53.2396 20.5364 54.5758 19.9737L56.8264 18.9188C56.8967 18.9188 56.967 18.8485 56.967 18.9188C56.967 18.9188 56.967 18.9891 56.8967 19.0595L54.5758 23.2089C54.5758 23.2792 54.5055 23.3496 54.5758 23.4199C54.5758 23.4902 54.6462 23.4902 54.7868 23.4199L58.5143 21.6617C59.2176 21.31 59.2879 21.8727 59.4989 21.8023C59.4989 21.8023 59.5692 21.732 59.5692 21.6617C59.5692 21.5913 59.4286 21.4507 59.2879 21.099C59.1473 20.7474 59.0769 20.5364 59.0066 20.4661C59.0066 20.3957 58.866 20.3957 58.866 20.4661C58.655 20.5364 59.0769 21.1694 58.444 21.4507L56.1934 22.5056C56.0528 22.5056 55.9824 22.5056 55.9121 22.5056C55.9121 22.5056 55.9824 22.365 55.9824 22.2243L57.9517 18.7078C58.022 18.5672 58.0923 18.5672 58.022 18.4265C57.8813 18.1452 57.811 18.0045 57.7407 17.8639C57.7407 17.7935 57.6703 17.7232 57.6703 17.5825C57.6703 17.5122 57.6 17.5122 57.5297 17.5122C57.178 17.6529 57.9517 18.0748 56.6154 18.6375L54.0835 19.9034Z" fill="#111111"></path> <path fill-rule="evenodd" clip-rule="evenodd" d="M59.3583 23.7715C59.9913 23.5605 59.9209 24.0528 60.1319 23.9825C60.2022 23.9825 60.2022 23.9121 60.2022 23.7715C60.1319 23.4198 59.9913 23.2792 59.9209 23.0682C59.8506 22.8572 59.8506 22.6462 59.7099 22.4352C59.7099 22.3649 59.6396 22.2242 59.5693 22.2946C59.3583 22.3649 59.7099 22.9275 59.077 23.1385L55.7011 24.1935C55.0682 24.4044 55.0682 23.9121 54.8572 24.0528C54.7869 24.0528 54.7869 24.1231 54.7869 24.1231C54.8572 24.2638 54.9275 24.4748 54.9979 24.7561C55.1385 25.1781 55.2088 25.3891 55.2792 25.6001C55.3495 25.7407 55.3495 25.7407 55.4198 25.7407C55.6308 25.6704 55.1385 25.1781 55.9825 24.8968L59.3583 23.7715Z" fill="#111111"></path> <path fill-rule="evenodd" clip-rule="evenodd" d="M60.9055 28.132C60.9759 28.132 60.9759 28.0617 60.9055 28.0617C60.9055 27.9913 60.6242 27.9913 60.6242 27.921C60.6242 27.71 60.9759 27.2177 60.8352 26.5144C60.5539 25.0375 58.866 24.7562 57.6704 24.9672C57.1077 25.0375 55.2792 25.6705 55.5605 27.3584C55.7715 28.6243 56.9671 29.0463 57.2484 28.9759C57.3187 28.9759 57.3187 28.9056 57.3187 28.9056C57.3187 28.765 56.2638 28.554 56.1231 27.6397C55.9121 26.5144 57.2484 25.8111 58.3033 25.6705C59.288 25.5298 60.3429 25.8111 60.5539 26.6551C60.6945 27.3584 60.1319 27.921 59.4989 28.343C59.4286 28.4133 59.288 28.4836 59.288 28.554C59.288 28.6243 59.4989 28.6243 59.5693 28.554L60.9055 28.132Z" fill="#111111"></path> <path fill-rule="evenodd" clip-rule="evenodd" d="M18.8484 46.6286C18.6374 46.7693 18.6374 46.7693 18.4264 46.488C18.0747 45.9957 18.567 45.9253 18.4264 45.855C18.3561 45.7847 18.2857 45.855 18.2857 45.9254L18.0044 46.1363C18.0044 46.1363 17.9341 46.2067 18.0044 46.2067C18.1451 46.4177 18.2857 46.5583 18.4264 46.7693C18.7077 47.121 18.8484 47.3319 18.9187 47.4023C18.9187 47.4726 18.989 47.4726 18.989 47.4023C19.1297 47.3319 18.778 47.121 19.0594 46.91L20.3253 45.9254C20.6769 45.644 20.6769 45.9957 20.7473 45.855V45.7847C20.6769 45.644 20.5363 45.5737 20.4659 45.5034C20.3956 45.3627 20.255 45.222 19.9736 44.8704C19.833 44.6594 19.4813 44.6594 19.2703 44.8704C19.2 44.9407 19.2 44.9407 19.2 44.9407C19.2703 45.0111 19.622 44.7297 20.044 45.3627C20.1846 45.5737 20.044 45.5737 19.9033 45.7144L19.6923 45.9957C19.5517 46.1363 19.4813 46.1363 19.411 46.066L19.2703 45.855C19.0593 45.5737 19.411 45.433 19.3407 45.3627C19.2703 45.2924 19.2 45.3627 19.2 45.433L18.7077 45.7847C18.6374 45.855 18.6374 45.855 18.7077 45.855C18.778 45.9253 18.989 45.7144 19.1297 45.9254L19.2703 46.066C19.3407 46.1363 19.3407 46.2067 19.2 46.277L18.8484 46.6286Z" fill="#111111"></path> <path fill-rule="evenodd" clip-rule="evenodd" d="M19.4111 44.5187C19.6221 44.5187 19.7627 44.6594 19.7627 44.589C19.8331 44.589 19.7627 44.5187 19.6924 44.4484C19.6221 44.378 19.5517 44.3077 19.4814 44.2374C19.4111 44.1671 19.4111 44.0967 19.2704 43.9561C19.2001 43.8857 19.2001 43.8857 19.2001 43.8857C19.1298 43.9561 19.3407 44.0967 19.2001 44.2374C19.1298 44.2374 19.0594 44.3077 18.9188 44.3077H18.4968C18.4265 44.3077 18.3561 44.3077 18.3561 44.3077C18.3561 44.3077 18.3561 44.2374 18.4265 44.1671L18.6374 43.6747C18.6374 43.6044 18.7078 43.5341 18.7781 43.4638C18.8484 43.3934 18.9188 43.5341 19.0594 43.4638C19.1298 43.4638 19.0594 43.3934 19.0594 43.3934C18.9891 43.3231 18.9188 43.2528 18.8484 43.1121C18.7781 42.9715 18.7078 42.9011 18.7078 42.9011C18.5671 42.9011 18.4968 42.9011 18.4968 42.9011C18.4265 42.9715 18.5671 43.0418 18.4265 43.3934L18.1451 44.2374C18.0748 44.3077 18.0748 44.378 18.0748 44.378C18.0748 44.378 17.9342 44.378 17.8638 44.378H17.2309C16.8089 44.378 16.7386 44.1671 16.6682 44.2374C16.6682 44.2374 16.5979 44.3077 16.6682 44.3077C16.7386 44.4484 16.8089 44.5187 16.8792 44.589C16.9495 44.6594 16.9495 44.7297 17.0902 44.8704C17.0902 44.8704 17.0902 44.9407 17.1605 44.8704C17.2309 44.8 17.0902 44.6594 17.1605 44.589C17.2309 44.5187 17.3012 44.5187 17.4418 44.5187H17.8638C17.9342 44.5187 17.9342 44.5187 18.0045 44.5187V44.589L17.7232 45.1517C17.7232 45.222 17.6528 45.222 17.6528 45.222C17.5825 45.2923 17.4418 45.1517 17.3715 45.222C17.3715 45.222 17.3012 45.222 17.3715 45.2923C17.4418 45.3627 17.4418 45.433 17.6528 45.5737C17.7935 45.7846 17.8638 45.855 17.8638 45.9253C17.8638 45.9956 17.9342 45.9956 17.9342 45.9253C18.0045 45.855 17.7935 45.7846 18.0748 45.222L18.3561 44.589C18.3561 44.5187 18.4265 44.4484 18.4265 44.378C18.4265 44.378 18.4968 44.378 18.5671 44.378L19.4111 44.5187Z" fill="#111111"></path> <path fill-rule="evenodd" clip-rule="evenodd" d="M28.6945 13.0813C29.0462 13.0813 29.3978 13.3626 29.3978 13.7846C29.3978 14.1362 29.1165 14.4879 28.6945 14.4879C28.3429 14.4879 27.9912 14.2066 27.9912 13.7846C27.9912 13.3626 28.3429 13.0813 28.6945 13.0813Z" fill="#111111"></path> <path fill-rule="evenodd" clip-rule="evenodd" d="M22.4352 14.4878C22.7869 14.4878 23.1385 14.7691 23.1385 15.1911C23.1385 15.5427 22.8572 15.8944 22.4352 15.8944C22.0836 15.8944 21.7319 15.6131 21.7319 15.1911C21.8023 14.7691 22.0836 14.4878 22.4352 14.4878Z" fill="#111111"></path> <path d="M43.0418 17.0901C42.9011 17.5121 42.6901 17.5825 42.0571 17.4418C41.4945 17.3715 41.4945 16.5978 41.5648 16.3165L40.6506 16.0352C40.2286 16.8088 39.8066 16.8792 39.3846 16.8088C38.7517 16.7385 38.6813 15.6132 38.7517 14.9803L37.767 14.7693C37.2747 16.1055 37.0637 16.2462 36.5011 16.3868C36.1495 16.4572 35.9385 16.2462 35.7978 16.1055C35.5868 15.8945 35.4462 15.6132 35.4462 15.3319C35.4462 15.1912 35.5165 15.0506 35.5165 14.9099L34.6022 14.7693C34.5319 14.9099 34.5319 15.1209 34.5319 15.2616C34.4615 15.6132 34.2506 15.9649 34.0396 16.1055C33.8989 16.2462 33.6879 16.2462 33.5473 16.1759C33.055 16.0352 32.4923 15.6836 32.4923 13.855H31.5077C31.5077 13.9253 31.5077 13.9956 31.5077 13.9956C31.5077 15.3319 31.156 15.9649 30.4528 16.1759C30.2418 16.2462 30.1011 16.1759 29.8901 16.0352C29.6791 15.8242 29.4681 15.4726 29.3978 15.1209C29.3978 14.9803 29.3978 14.8396 29.3978 14.6989L28.4132 14.7693C28.4132 14.9099 28.4132 15.0506 28.4132 15.1912C28.4132 15.5429 28.2725 15.8945 27.9912 16.1055C27.7802 16.3165 27.5692 16.3868 27.3582 16.3165C26.7956 16.1759 26.5143 15.9649 26.022 14.6286L25.1077 14.8396C25.178 15.5429 25.1077 16.6682 24.4747 16.7385C24.1231 16.8088 23.7011 16.7385 23.2791 15.8242L22.3648 16.1759C22.4352 16.8088 22.1539 17.3715 21.8022 17.5121C21.1692 17.6528 21.1692 17.6528 20.8879 17.1605L20.8176 17.0198L19.9736 17.5121L20.044 17.6528C20.4659 18.4264 20.8176 18.7781 22.0132 18.4264C22.5758 18.2857 22.9275 17.8638 23.1385 17.3715C23.5604 17.7231 24.0528 17.8638 24.6154 17.7934C25.1077 17.7231 25.6 17.4418 25.8813 16.5978C26.233 16.9495 26.5846 17.2308 27.1473 17.3011C27.7099 17.3715 28.2022 17.2308 28.6242 16.8088C28.6945 16.7385 28.8352 16.5978 28.9055 16.4572C28.9758 16.5978 29.1165 16.6682 29.1868 16.7385C29.6088 17.0901 30.1011 17.1605 30.5934 17.0198C31.2264 16.8088 31.6484 16.4572 31.9297 16.0352C32.211 16.5275 32.633 16.8792 33.1956 17.0198C33.6879 17.1605 34.1099 17.0901 34.5319 16.7385C34.6725 16.6682 34.7429 16.5275 34.8835 16.3868C34.9539 16.4572 35.0242 16.5275 35.0242 16.5978C35.4462 17.0901 36.0088 17.3011 36.6418 17.1605C37.2044 17.0901 37.5561 16.8088 37.9077 16.4572C38.189 17.3011 38.822 17.5121 39.244 17.5825C39.6659 17.6528 40.2286 17.5825 40.7209 17.2308C40.9319 17.7231 41.3539 18.0748 41.8462 18.2154C42.3385 18.2857 43.3934 18.4967 43.956 17.3011L43.0418 17.0901Z" fill="#111111"></path> <path fill-rule="evenodd" clip-rule="evenodd" d="M35.0944 13.0813C35.4461 13.0813 35.7977 13.3626 35.7977 13.7846C35.7977 14.1362 35.5164 14.4879 35.0944 14.4879C34.7428 14.4879 34.3911 14.2066 34.3911 13.7846C34.3911 13.4329 34.6724 13.0813 35.0944 13.0813Z" fill="#111111"></path> <path fill-rule="evenodd" clip-rule="evenodd" d="M41.4242 14.3472C41.7759 14.3472 42.1275 14.6285 42.1275 15.0505C42.1275 15.4724 41.8462 15.7538 41.4242 15.7538C41.0726 15.7538 40.7209 15.4724 40.7209 15.0505C40.7209 14.6285 41.0023 14.3472 41.4242 14.3472Z" fill="#111111"></path> <path fill-rule="evenodd" clip-rule="evenodd" d="M22.5056 20.5363L23.2089 19.833L24.1232 20.1847L23.4199 20.888L22.5056 20.5363Z" fill="#111111"></path> <path d="M20.8878 19.9736C25.1076 18.6373 27.5691 18.2153 31.9999 18.2856C36.501 18.2856 38.9626 18.7076 43.1823 19.9736C43.1823 19.9736 43.534 20.0439 43.6746 19.6219C43.8153 19.1999 43.4636 19.0593 43.4636 19.0593C39.2439 17.723 36.5713 17.301 31.9999 17.301C27.4988 17.301 24.8263 17.723 20.6065 19.0593C20.6065 19.0593 20.2549 19.1999 20.3955 19.6219C20.4658 20.0439 20.8878 19.9736 20.8878 19.9736Z" fill="#111111"></path> <path d="M21.7318 22.6461C22.0835 22.5757 22.5055 22.5054 22.9275 22.3647C25.0373 21.8724 27.5692 21.3098 31.9297 21.3098C35.5165 21.3098 37.978 21.8021 41.0725 22.4351L42.1978 22.6461C42.1978 22.6461 42.5494 22.7164 42.6198 22.2944C42.6901 21.8724 42.3385 21.7318 42.3385 21.7318L41.2132 21.5208C38.0483 20.8878 35.5868 20.3955 31.8593 20.3955C27.4286 20.3955 24.756 21.0285 22.6461 21.5208C22.2242 21.5911 21.8725 21.7318 21.4505 21.8021C21.4505 21.8021 21.0989 21.9428 21.1692 22.3647C21.3802 22.7164 21.7318 22.6461 21.7318 22.6461Z" fill="#111111"></path> <path fill-rule="evenodd" clip-rule="evenodd" d="M28.1318 19.4814L28.9758 18.8484L29.8901 19.3407L29.0461 19.9033L28.1318 19.4814Z" fill="#111111"></path> <path fill-rule="evenodd" clip-rule="evenodd" d="M43.1824 21.1693C43.3933 20.7473 43.112 20.1143 43.112 20.1143C42.7604 20.044 42.1274 20.044 41.9868 20.5363C41.8461 21.0286 41.9868 21.3803 42.5494 21.7319C42.4791 21.6616 42.8307 21.5913 43.1824 21.1693Z" fill="#111111"></path> <path fill-rule="evenodd" clip-rule="evenodd" d="M41.4242 20.5363L40.7209 19.833L39.8066 20.1847L40.5099 20.888L41.4242 20.5363Z" fill="#111111"></path> <path fill-rule="evenodd" clip-rule="evenodd" d="M35.7275 19.4814L34.9538 18.8484L34.0396 19.3407L34.8835 19.9033L35.7275 19.4814Z" fill="#111111"></path> <path fill-rule="evenodd" clip-rule="evenodd" d="M39.1736 19.9737C39.2439 19.4814 38.6813 19.1297 37.978 18.9891C37.2747 18.8484 36.5714 19.0594 36.501 19.5517C36.4307 20.044 36.923 20.3957 37.6967 20.5363C38.3999 20.6066 39.1032 20.466 39.1736 19.9737Z" fill="#111111"></path> <path fill-rule="evenodd" clip-rule="evenodd" d="M48.3164 22.3649C48.4571 22.2946 48.5274 22.2946 48.5978 22.4352C48.8791 22.8572 48.3868 23.1385 48.3164 23.2089C48.2461 23.2792 47.8945 23.4199 47.6835 23.1385C47.6131 23.0682 47.6131 22.9979 47.6131 22.9979H47.5428C47.5428 22.9979 47.4725 23.0682 47.6131 23.3495C47.8241 23.6309 48.1758 23.7715 48.5978 23.5605C49.0197 23.2792 49.0197 22.8572 48.8087 22.5056C48.6681 22.2946 48.5978 22.1539 48.5274 22.0836C48.3868 21.8726 48.3164 21.732 48.3164 21.732C48.2461 21.6616 48.2461 21.6616 48.2461 21.6616C48.1054 21.732 48.4571 21.9429 48.1054 22.1539L46.7692 22.9979C46.3472 23.2089 46.3472 22.9979 46.2066 23.0682C46.1362 23.0682 46.2066 23.1385 46.2066 23.1385C46.2066 23.1385 46.3472 23.3495 46.4175 23.4902C46.4879 23.5605 46.4879 23.7012 46.6285 23.8418C46.6285 23.9122 46.6285 23.9122 46.6989 23.9122C46.8395 23.8418 46.5582 23.6308 46.9098 23.4199L48.3164 22.3649Z" fill="#111111"></path> <path fill-rule="evenodd" clip-rule="evenodd" d="M51.2 30.0307C51.2704 30.0307 51.3407 30.0307 51.3407 29.9604C51.3407 29.89 51.2704 29.89 51.2 29.89C51.2 29.8197 51.411 29.5384 51.3407 29.1164C51.2704 28.3428 50.4264 28.1318 49.7934 28.2021C49.5121 28.2725 48.5978 28.4835 48.7385 29.3977C48.8088 29.7494 49.0198 30.0307 49.2308 30.312H49.3011C49.3715 30.312 49.4418 30.312 49.5824 30.2417C50.0747 30.1714 49.8638 30.3824 50.0044 30.3824C50.0747 30.3824 50.0747 30.3824 50.0747 30.312C50.0747 30.2417 50.0044 30.101 50.0044 29.9604C50.0044 29.8197 50.0044 29.6791 49.9341 29.5384C49.9341 29.4681 49.9341 29.3977 49.8638 29.3977C49.7231 29.3977 50.0044 29.7494 49.4418 29.8197C49.2308 29.8197 48.9495 29.89 48.8791 29.3274C48.8088 28.8351 49.4418 28.5538 49.9341 28.4835C50.8484 28.3428 51.1297 28.6944 51.1297 28.9758C51.2704 29.7494 50.4264 29.89 50.4967 29.9604C50.4967 30.0307 50.4967 30.0307 50.5671 30.0307H51.2Z" fill="#111111"></path> <path fill-rule="evenodd" clip-rule="evenodd" d="M50.9188 33.477C51.2001 33.477 51.2001 33.5474 51.1298 33.899C51.0594 34.4616 50.6375 34.1803 50.6375 34.321C50.6375 34.3913 50.7781 34.3913 50.7781 34.3913H51.1298C51.1298 34.3913 51.2001 34.3913 51.2001 34.321C51.2001 34.0397 51.2704 33.8287 51.2704 33.6177C51.3408 33.1254 51.3408 32.9144 51.3408 32.8441C51.3408 32.7737 51.3408 32.7737 51.2704 32.7737C51.1298 32.7737 51.2001 33.1254 50.8484 33.0551L49.1605 32.8441C48.7385 32.7737 48.9495 32.5627 48.8089 32.5627C48.8089 32.5627 48.7385 32.5627 48.7385 32.6331C48.7385 32.7737 48.7385 32.9144 48.7385 33.0551C48.7385 33.1957 48.6682 33.4067 48.6682 33.8287C48.6682 34.11 48.9495 34.321 49.2309 34.321C49.3012 34.321 49.3012 34.321 49.3012 34.321C49.3012 34.1803 48.8089 34.1803 48.9495 33.4067C48.9495 33.1957 49.0902 33.1957 49.3012 33.266L49.7935 33.3364C50.0045 33.3364 50.0748 33.3364 50.0045 33.477V33.688C50.0045 34.0397 49.5825 33.899 49.5825 33.9693C49.5825 34.0397 49.7232 34.0397 49.7232 34.0397L50.3561 34.11C50.4265 34.11 50.4265 34.11 50.4265 34.0397C50.4265 33.9693 50.0748 33.899 50.1451 33.688V33.477C50.1451 33.3364 50.2155 33.3364 50.3561 33.3364L50.9188 33.477Z" fill="#111111"></path> <path fill-rule="evenodd" clip-rule="evenodd" d="M48.879 34.532C48.8087 34.532 48.7384 34.532 48.7384 34.6023C48.668 34.743 48.5274 34.8836 48.5274 35.0946C48.457 35.5166 48.7384 35.7979 49.1603 35.9386C49.5823 36.0089 49.7933 35.8682 50.0043 35.5869C50.2856 35.2353 50.3559 35.0946 50.6373 35.0946C50.8482 35.165 50.9889 35.3056 50.9186 35.5166C50.8482 36.0089 50.145 35.9386 50.145 36.0089C50.145 36.0792 50.145 36.0792 50.2856 36.0792L50.7779 36.1496C50.8482 36.1496 50.9186 36.1496 50.9186 36.1496C50.9186 36.0792 50.8482 36.0089 50.9186 36.0089C50.9186 35.9386 51.1296 35.7979 51.1296 35.5869C51.1999 35.2353 50.9186 34.954 50.5669 34.8836C50.2153 34.8133 50.0043 34.954 49.8636 35.165C49.512 35.5869 49.4417 35.7979 49.1603 35.7276C48.879 35.6573 48.7384 35.4463 48.8087 35.2353C48.879 34.8836 49.2307 34.8133 49.5823 34.743C49.6526 34.743 49.6526 34.743 49.6526 34.6726C49.6526 34.6023 49.5823 34.6023 49.512 34.6023H48.879V34.532Z" fill="#111111"></path> <path fill-rule="evenodd" clip-rule="evenodd" d="M48.5275 36.0791C48.4572 36.0791 48.3868 36.0791 48.3868 36.1494C48.3165 36.2901 48.1759 36.4307 48.1055 36.5714C47.9649 36.923 48.1758 37.345 48.6682 37.4857C49.0901 37.6263 49.3011 37.4857 49.5824 37.2044C49.9341 36.8527 50.0044 36.7121 50.2154 36.7824C50.4264 36.8527 50.5671 37.0637 50.4967 37.2044C50.3561 37.6967 49.6528 37.556 49.6528 37.6263C49.6528 37.6967 49.6528 37.6967 49.7231 37.6967L50.2154 37.8373C50.2857 37.8373 50.3561 37.9077 50.3561 37.8373C50.3561 37.767 50.3561 37.6967 50.3561 37.6967C50.3561 37.6263 50.5671 37.556 50.6374 37.2747C50.778 36.923 50.5671 36.6417 50.1451 36.5011C49.7934 36.3604 49.5824 36.5011 49.3715 36.7121C48.9495 37.134 48.8791 37.2747 48.5978 37.2044C48.3165 37.134 48.2462 36.8527 48.3165 36.6417C48.4572 36.2901 48.8088 36.2198 49.1605 36.2198C49.2308 36.2198 49.2308 36.2198 49.2308 36.1494C49.2308 36.0791 49.1605 36.0791 49.0901 36.0791H48.5275Z" fill="#111111"></path> <path fill-rule="evenodd" clip-rule="evenodd" d="M49.6528 38.6812C50.0045 38.8219 49.7935 38.9625 49.8638 39.0329C49.9342 39.0329 49.9342 39.0329 49.9342 38.9625C50.0045 38.8219 50.0045 38.6812 50.0748 38.6109C50.1451 38.5406 50.1451 38.3999 50.2155 38.2592C50.2155 38.2592 50.2858 38.1889 50.2155 38.1186C50.0748 38.0483 50.0748 38.3999 49.7935 38.3296L48.1759 37.7669C47.8243 37.6263 48.0353 37.4856 47.8946 37.4153H47.8243C47.8243 37.4856 47.7539 37.6263 47.7539 37.7669C47.6836 37.9779 47.6133 38.1186 47.6133 38.1889C47.6133 38.2592 47.6133 38.2592 47.6133 38.3296C47.7539 38.3999 47.6836 37.9779 48.1056 38.1186L49.6528 38.6812Z" fill="#111111"></path> <path fill-rule="evenodd" clip-rule="evenodd" d="M48.6682 38.6814C47.9649 38.4001 47.4023 38.6814 47.1913 39.244C46.8397 40.1583 47.6133 40.6506 48.1056 40.7913C48.8089 41.0726 49.4418 40.7913 49.6528 40.2287C49.7935 39.5254 49.3715 38.8924 48.6682 38.6814ZM49.4418 40.088C49.3012 40.4396 48.8089 40.6506 48.0353 40.3693C47.4726 40.1583 47.0506 39.8067 47.2616 39.3144C47.4726 38.8221 48.2463 38.8924 48.7386 39.0331C49.2309 39.244 49.6528 39.5957 49.4418 40.088Z" fill="#111111"></path> <path d="M22.1538 46.6285C22.0835 46.3472 22.0132 46.1362 21.8022 45.7846C21.4505 45.222 21.3099 45.011 20.7472 44.3077C20.6769 44.2373 20.6769 44.2373 20.6066 44.167L21.1692 43.534L21.2395 43.4637L21.3802 43.3934V43.323L21.0989 42.8307C20.7472 42.2681 20.4659 41.8461 20.1143 41.1428C19.6219 40.0879 19.411 39.4549 19.1296 38.3296L18.778 38.4L17.7934 38.6813C16.3164 34.8835 15.8945 31.578 16.5274 28.5538L18.6373 29.4681L18.9186 29.6088L18.989 29.3274L19.9736 25.6L20.0439 25.4593H19.9736L19.8329 25.3187L18.9186 24.8263L19.3406 23.0681L19.4813 22.9274L19.2703 22.7868L15.1912 20.1846L15.0505 20.3956L14.8395 20.2549C12.589 23.4198 11.323 27.2879 11.2527 31.2967C11.1121 35.4461 12.2373 39.3846 14.4879 42.7604L14.6285 42.9714L14.8395 42.8307L16.1055 42.0571C16.1758 42.2681 16.3868 42.6198 16.5274 42.8307C16.5978 42.9714 16.6681 43.0417 16.7384 43.1824L15.5428 43.956L15.6835 44.167H15.4725L15.6132 44.378C16.3868 45.7143 18.2857 48.9494 20.1846 48.3165C20.7472 48.1055 21.0989 47.8241 21.4505 47.5428C21.6615 47.3318 21.8725 47.1912 22.1538 46.9802L22.2945 46.9099L22.2241 46.6989L22.1538 46.6285ZM20.3252 43.745C20.0439 43.3934 19.7626 42.9714 19.5516 42.5494L20.6769 43.323L20.3252 43.745ZM18.4967 38.9626L18.2857 39.8066C18.2154 39.5956 18.0747 39.3846 18.0044 39.1736L18.4967 38.9626ZM18.6373 28.9055L16.6681 28.0615C16.6681 27.9209 16.7384 27.7802 16.8088 27.6395L18.0044 27.7802H18.145L18.2154 27.7099L19.2703 26.3736L18.6373 28.9055ZM16.9494 27.2176C17.3714 26.0923 17.8637 24.967 18.6373 23.9121L17.8637 27.2879L16.9494 27.2176ZM19.411 25.6L18.4967 26.7252L18.778 25.3187L19.411 25.6ZM14.6989 42.1978C12.589 38.9626 11.534 35.1648 11.6747 31.2263C11.745 27.4285 13.011 23.7011 15.0505 20.6769L18.7077 22.9978C15.0505 27.6395 14.8395 33.2659 17.934 40.2285L14.6989 42.1978ZM16.4571 41.7055L18.356 40.5099L18.4967 40.3692L18.778 39.1736C18.989 39.8769 19.2 40.4395 19.5516 41.2835C19.7626 41.7758 19.9736 42.1274 20.2549 42.5494L18.9186 41.6351H18.989L18.778 41.7758L17.0901 42.9011C17.0197 42.7604 16.9494 42.6901 16.8791 42.5494C16.7384 42.2681 16.5274 41.8461 16.4571 41.7055ZM21.0989 47.1912C20.7472 47.4725 20.4659 47.6835 19.9736 47.8945C18.4263 48.3868 16.5978 45.3626 15.8945 44.167L18.778 42.2681C19.2 43.0417 19.8329 43.956 20.3252 44.589C20.8879 45.2923 21.0285 45.5033 21.3802 45.9956C21.5912 46.2769 21.5912 46.4176 21.7318 46.6989C21.5208 46.9099 21.3099 47.0505 21.0989 47.1912ZM52.6769 31.2263C52.6066 27.2879 51.2703 23.3494 49.0901 20.1846L48.8791 20.3252L48.7384 20.1143L44.6593 22.7165L44.4483 22.8571L44.589 22.9978L45.011 24.756L44.0263 25.3187L43.8154 25.389H43.745L43.8154 25.5296L44.8 29.2571L44.8703 29.5384L45.0813 29.3978L47.1912 28.4835C47.8241 31.5077 47.4725 34.8132 45.9956 38.611L45.0813 38.4L44.7296 38.3296C44.4483 39.3846 44.2373 40.0176 43.745 41.1428C43.3934 41.8461 43.1121 42.2681 42.7604 42.8307L42.4791 43.323L42.6901 43.534L43.2527 44.167C43.2527 44.2373 43.1824 44.2373 43.1824 44.3077C42.6901 44.8703 42.6197 45.011 42.2681 45.3626L41.9868 45.6439C41.5648 45.9252 41.3538 46.3472 41.3538 46.6989C41.3538 46.9099 41.4945 47.0505 41.7055 47.1209C42.1978 47.3318 42.3384 47.3318 42.4088 47.4022C42.4791 47.4022 42.5494 47.4022 42.6197 47.4725L43.1121 47.5428C43.8857 47.6835 43.956 47.6835 44.9406 47.4022C46.6989 46.8395 47.7538 44.589 47.7538 44.4483L47.5428 44.378L47.6835 44.167L46.8395 43.6747C46.9802 43.4637 47.2615 43.0417 47.4022 42.7604C47.5428 42.4791 47.7538 42.1274 47.8241 41.9868L49.0901 42.7604L49.3011 42.9011L49.4417 42.6901C51.6219 39.3143 52.7472 35.3758 52.6769 31.2263ZM45.0813 25.3187L45.3626 26.7252L44.5187 25.6703L45.0813 25.3187ZM45.222 23.9121C45.9252 24.967 46.4879 26.0923 46.9099 27.2176L45.9956 27.3582L45.222 23.9121ZM45.222 28.9055L44.589 26.4439L45.6439 27.7802L45.7143 27.8505H45.8549L47.0505 27.7099C47.1208 27.8505 47.1208 27.9912 47.1912 28.1318L45.222 28.9055ZM45.8549 39.1033C45.7846 39.3143 45.6439 39.5252 45.5736 39.7362L45.3626 38.9626L45.8549 39.1033ZM43.1824 43.4637L44.0263 42.9714C43.8154 43.323 43.6747 43.534 43.4637 43.8154L43.1824 43.4637ZM47.2615 44.4483C46.9802 45.011 46.0659 46.5582 44.8 46.9099C43.956 47.1912 43.8857 47.1912 43.1824 47.0505L42.7604 46.9802C42.6197 46.9099 42.5494 46.9099 42.5494 46.9099C42.4791 46.9099 42.3384 46.8395 41.9165 46.6989C41.8461 46.6989 41.8461 46.6285 41.8461 46.6285C41.8461 46.4879 41.9868 46.2066 42.2681 45.9956L42.5494 45.7143C42.9011 45.3626 43.0417 45.222 43.534 44.6593C43.956 44.0967 44.3077 43.745 44.7296 42.9714L47.2615 44.4483ZM46.9802 42.5494C46.8395 42.8307 46.5582 43.1824 46.4176 43.4637L44.7296 42.4088L44.5187 42.2681L43.323 42.9011C43.6044 42.4088 43.8857 41.9868 44.167 41.3538C44.5187 40.5099 44.7296 39.9472 44.9406 39.2439L45.222 40.4395L45.4329 40.5802L47.3318 41.7758C47.3318 41.8461 47.1912 42.2681 46.9802 42.5494ZM49.1604 42.1978L45.9252 40.2285C49.0198 33.2659 48.8088 27.6395 45.1516 22.9978L48.8088 20.6769C50.9187 23.7011 52.1143 27.4285 52.1846 31.2263C52.3252 35.2351 51.2703 38.9626 49.1604 42.1978Z" fill="#111111"></path> <path fill-rule="evenodd" clip-rule="evenodd" d="M33.3364 19.3408C33.3364 18.8485 32.7737 18.5671 32.0001 18.5671C31.2265 18.5671 30.6638 18.8485 30.5935 19.3408C30.5935 19.8331 31.1561 20.1144 31.9298 20.1144C32.7034 20.0441 33.3364 19.8331 33.3364 19.3408Z" fill="#111111"></path> <path fill-rule="evenodd" clip-rule="evenodd" d="M24.6856 19.9737C24.6153 19.4814 25.1779 19.1297 25.8812 18.9891C26.5845 18.8484 27.2878 19.0594 27.3582 19.5517C27.4285 20.044 26.9362 20.3957 26.1626 20.5363C25.3889 20.6066 24.756 20.466 24.6856 19.9737Z" fill="#111111"></path> <path fill-rule="evenodd" clip-rule="evenodd" d="M16.0352 38.8924C16.3869 38.6814 16.3869 39.1034 16.5275 39.033C16.5979 39.033 16.5979 38.9627 16.5275 38.8924C16.4572 38.7517 16.3869 38.6814 16.3165 38.5407C16.2462 38.3297 16.1759 38.2594 16.1055 38.1187C16.0352 38.0484 16.0352 37.9781 15.9649 38.0484C15.8946 38.1187 16.1759 38.4001 15.7539 38.6111L14.3473 39.3144C14.2066 39.3847 14.1363 39.3847 14.1363 39.244L13.9957 39.033C13.855 38.7517 14.2066 38.6111 14.1363 38.5407C14.066 38.4704 13.9957 38.5407 13.9253 38.6111L13.855 38.6814L13.7847 38.7517C13.9253 39.033 13.9957 39.1737 14.2066 39.5957C14.4176 40.0177 14.488 40.1583 14.6286 40.4396C14.6286 40.51 14.699 40.4396 14.699 40.4396L15.1209 40.299C15.1913 40.299 15.2616 40.299 15.1913 40.2286C15.1209 40.088 14.7693 40.3693 14.6286 40.088L14.488 39.877C14.4176 39.7363 14.4176 39.7363 14.5583 39.666L16.0352 38.8924Z" fill="#111111"></path> <path fill-rule="evenodd" clip-rule="evenodd" d="M13.644 37.2747C13.433 37.3451 13.433 37.345 13.2923 36.9934C13.1517 36.4308 13.5736 36.5714 13.5033 36.4308C13.5033 36.3604 13.3627 36.4308 13.3627 36.4308L13.011 36.5011L12.9407 36.5714C13.011 36.8527 13.0813 37.0637 13.1517 37.2747C13.2923 37.6967 13.3627 37.978 13.3627 38.0483C13.3627 38.1187 13.433 38.1187 13.433 38.1187C13.5736 38.0483 13.3627 37.767 13.644 37.6967L15.1912 37.2747C15.6132 37.1341 15.4725 37.4154 15.6132 37.4154C15.6132 37.4154 15.6132 37.4154 15.6132 37.345C15.5429 37.2044 15.5429 37.0637 15.4725 36.9934C15.4022 36.8527 15.4022 36.6418 15.2616 36.2198C15.1912 36.0088 14.8396 35.8681 14.6286 35.9385C14.5583 35.9385 14.5583 36.0088 14.5583 36.0088C14.5583 36.1495 14.9802 35.9385 15.1912 36.7121C15.2616 36.9231 15.1209 36.9231 14.9099 36.9934L14.4879 37.1341C14.2769 37.2044 14.2769 37.2044 14.2066 37.0637L14.1363 36.8527C14.0659 36.5714 14.4176 36.5011 14.4176 36.4308C14.4176 36.3604 14.2769 36.4308 14.2066 36.4308L13.644 36.6418C13.5736 36.6418 13.5736 36.7121 13.5736 36.7121C13.5736 36.7824 13.9253 36.7121 13.9956 36.9231L14.0659 37.1341C14.1363 37.2747 14.0659 37.2747 13.9253 37.345L13.644 37.2747Z" fill="#111111"></path> <path fill-rule="evenodd" clip-rule="evenodd" d="M13.5737 35.5869C13.9254 35.5166 14.2067 35.2353 14.1364 34.8836C14.066 34.6023 13.7847 34.321 13.7144 34.3913C13.6441 34.3913 13.6441 34.3913 13.6441 34.4616C13.6441 34.532 13.855 34.6023 13.855 34.8133C13.9254 35.0946 13.5737 35.3056 13.2221 35.3759C13.0111 35.3759 12.7298 35.3759 12.7298 35.1649C12.7298 35.0243 12.8001 34.9539 12.9408 34.8836C12.9408 34.8836 13.0111 34.8836 13.0111 34.8133C13.0111 34.7429 12.8001 34.6023 12.8001 34.6023C12.5891 34.6023 12.5891 34.9539 12.5891 35.0243C12.7298 35.4462 13.1517 35.6572 13.5737 35.5869Z" fill="#111111"></path> <path fill-rule="evenodd" clip-rule="evenodd" d="M12.8702 31.7186C12.5186 31.7186 12.6592 31.5076 12.5186 31.5076C12.5186 31.5076 12.4482 31.5076 12.4482 31.5779C12.4482 31.7186 12.4482 31.8593 12.4482 31.9999C12.4482 32.2109 12.4482 32.2812 12.4482 32.4219C12.4482 32.4922 12.4482 32.4922 12.5186 32.4922C12.5889 32.4922 12.5186 32.1406 12.8702 32.1406H13.3625C13.4329 32.1406 13.5032 32.1406 13.5032 32.2109V33.1252C13.5032 33.1955 13.4329 33.1955 13.3625 33.1955H12.7999C12.5186 33.1955 12.5889 32.9845 12.5186 32.9845C12.5186 32.9845 12.4482 32.9845 12.4482 33.0549C12.4482 33.1252 12.4482 33.2658 12.4482 33.4768C12.4482 33.6175 12.4482 33.7582 12.4482 33.8285C12.4482 33.8988 12.4482 33.9691 12.5186 33.9691C12.6592 33.9691 12.5186 33.6175 12.8702 33.6175H14.4175C14.8395 33.6175 14.6988 33.8988 14.8395 33.8988C14.9098 33.8988 14.9098 33.8988 14.9098 33.8285C14.9098 33.6878 14.9098 33.5472 14.9098 33.4065C14.9098 33.1955 14.9098 33.0549 14.9098 32.9845C14.9098 32.9142 14.9098 32.9142 14.8395 32.9142C14.6988 32.9142 14.8395 33.2658 14.4175 33.2658H13.8548C13.7142 33.2658 13.6438 33.2658 13.6438 33.1252V32.2812C13.6438 32.1406 13.7142 32.1406 13.8548 32.1406H14.4878C14.8395 32.1406 14.6988 32.3516 14.8395 32.3516C14.8395 32.3516 14.9098 32.3516 14.9098 32.2812C14.9098 32.1406 14.9098 31.9999 14.9098 31.8593C14.9098 31.7186 14.9098 31.5779 14.9098 31.4373C14.9098 31.3669 14.9098 31.3669 14.8395 31.3669C14.6988 31.3669 14.8395 31.7186 14.4175 31.7186H12.8702Z" fill="#111111"></path> <path fill-rule="evenodd" clip-rule="evenodd" d="M14.488 30.8045C14.8397 30.8748 14.7693 31.1561 14.91 31.1561C14.9803 31.1561 14.9803 31.0858 14.9803 31.0858C14.9803 31.0155 14.9803 30.9452 14.9803 30.8045C14.9803 30.6638 14.9803 30.5935 15.0506 30.4528C15.0506 30.3825 15.0506 30.3122 15.0506 30.3122C14.91 30.3122 15.0506 30.7342 14.4177 30.6638L13.2221 30.5232H13.1517C13.1517 30.5232 13.1517 30.5232 13.2221 30.4528L15.121 29.1869L15.1913 29.1166C15.1913 29.0463 15.1913 29.0463 15.121 29.0463L13.1517 28.8353C12.8001 28.7649 12.8704 28.554 12.8001 28.554C12.8001 28.554 12.7298 28.554 12.7298 28.6243C12.7298 28.6243 12.7298 28.7649 12.7298 28.9759C12.7298 29.1869 12.6594 29.2573 12.6594 29.3276C12.6594 29.3979 12.6594 29.3979 12.7298 29.3979C12.8704 29.3979 12.8001 29.0463 13.1517 29.0463L14.277 29.1869C14.3474 29.1869 14.4177 29.1869 14.4177 29.2572L14.3474 29.3276L12.6594 30.3122C12.5891 30.3825 12.5891 30.3122 12.5891 30.3825C12.5891 30.5232 12.5891 30.6638 12.5891 30.7342C12.5891 30.8045 12.5891 30.8748 12.5891 30.8748C12.5891 30.9452 12.5891 30.9452 12.6594 30.9452C12.8001 30.9452 12.6594 30.5935 13.2924 30.6638L14.488 30.8045Z" fill="#111111"></path> <path fill-rule="evenodd" clip-rule="evenodd" d="M13.3627 27.2879C13.011 27.2176 13.222 27.0066 13.0814 27.0066C13.011 27.0066 13.011 27.0066 13.011 27.0769C12.9407 27.2176 12.9407 27.3582 12.9407 27.4989C12.9407 27.6396 12.8704 27.7099 12.8704 27.8505C12.8704 27.8505 12.8704 27.9209 12.8704 27.9912C13.011 27.9912 12.9407 27.6396 13.2923 27.7099L14.9099 28.0615C15.2616 28.1319 15.1209 28.3429 15.1912 28.3429H15.2616C15.2616 28.2725 15.2616 28.1319 15.3319 27.9912C15.4022 27.7802 15.4022 27.6396 15.4726 27.4989C15.4726 27.4286 15.4726 27.4286 15.4726 27.3582C15.3319 27.3582 15.4726 27.7099 15.0506 27.6396L13.3627 27.2879Z" fill="#111111"></path> <path fill-rule="evenodd" clip-rule="evenodd" d="M14.0659 24.4043C14.0659 24.4043 14.0659 24.4746 14.0659 24.4043C13.9955 24.4746 14.1362 24.545 14.1362 24.545C14.1362 24.6153 13.8549 24.7559 13.7142 25.1076C13.4329 25.8109 13.9955 26.3735 14.5582 26.5845C14.8395 26.6548 15.6835 26.8658 16.0351 26.0219C16.2461 25.3889 15.8944 24.8966 15.7538 24.8966H15.6835C15.6835 24.9669 15.9648 25.3186 15.8241 25.7406C15.6131 26.3032 14.9098 26.3032 14.4175 26.0922C13.9955 25.9515 13.6439 25.5296 13.7846 25.1076C13.9252 24.7559 14.2769 24.6153 14.6285 24.6153C14.6988 24.6153 14.7692 24.6153 14.7692 24.545C14.7692 24.4746 14.6988 24.4746 14.6988 24.4746L14.0659 24.4043Z" fill="#111111"></path> <path fill-rule="evenodd" clip-rule="evenodd" d="M21.6615 54.5759C21.6615 54.3649 21.6615 54.2946 21.5911 54.2946C21.5208 54.2242 21.4505 54.3649 21.3098 54.4352L17.5823 57.5297C17.2307 57.811 16.9494 57.6001 16.879 57.7407C16.8087 57.811 16.9494 57.8814 17.0197 57.8814C17.2307 57.9517 17.3713 58.022 17.5823 58.1627C17.7933 58.233 17.934 58.3737 18.145 58.5143C18.2856 58.5847 18.4263 58.7253 18.4966 58.5847C18.5669 58.3737 17.8636 58.1627 18.0746 57.6704C18.145 57.5297 18.356 57.3187 18.4966 57.2484C18.8483 56.8968 18.9889 56.8968 19.1296 56.9671L20.3252 57.6001C20.4658 57.6704 20.4658 57.7407 20.3955 58.3737C20.3955 58.5847 20.3252 58.7253 20.2549 58.866C20.0439 59.288 19.6219 58.9363 19.5516 59.1473C19.4812 59.2176 19.6219 59.288 19.6922 59.3583C19.9032 59.4286 20.1142 59.5693 20.3955 59.7099C20.8175 59.9209 20.9582 60.0616 21.1691 60.1319C21.3098 60.2023 21.3801 60.2726 21.4505 60.1319C21.5911 59.9209 21.0988 59.9913 21.0988 59.4286L21.6615 54.5759ZM20.6768 56.9671C20.6768 57.0374 20.6768 57.1781 20.6065 57.2484C20.5362 57.3187 20.4658 57.2484 20.3955 57.1781L19.5516 56.7561C19.4109 56.6858 19.3406 56.6858 19.4109 56.6154C19.4812 56.5451 19.5516 56.4748 19.6219 56.4044L20.6768 55.4902C20.7472 55.4198 20.7472 55.4198 20.8175 55.4198C20.8175 55.4198 20.8175 55.4198 20.8175 55.4902L20.6768 56.9671Z" fill="#111111"></path> <path fill-rule="evenodd" clip-rule="evenodd" d="M51.1297 54.5759C50.9891 54.3649 50.8484 54.8572 50.3561 54.5759L46.1363 52.1846C45.9253 52.044 45.9253 52.044 45.855 52.1143C45.7847 52.1846 45.855 52.3253 45.855 52.3956L47.1209 57.0374C47.2616 57.4594 46.9099 57.6704 47.0506 57.811C47.1209 57.8814 47.1913 57.811 47.2616 57.7407C47.4022 57.6 47.5429 57.4594 47.7539 57.3187C47.9649 57.1781 48.1055 57.1077 48.3165 56.9671C48.4572 56.8967 48.6682 56.7561 48.5275 56.6857C48.3869 56.5451 47.8945 57.1077 47.5429 56.6857C47.4022 56.5451 47.3319 56.2638 47.3319 56.1231C47.1913 55.6308 47.2616 55.5605 47.3319 55.4198L48.3869 54.5759C48.5275 54.4352 48.5978 54.5055 49.1605 54.7868C49.3715 54.9275 49.4418 54.9978 49.5825 55.0682C49.8638 55.4198 49.4418 55.6308 49.5825 55.8418C49.6528 55.9121 49.7231 55.8418 49.7935 55.7715C49.9341 55.6308 50.1451 55.4901 50.3561 55.2792C50.7077 54.9978 50.9187 54.9275 51.0594 54.7165C51.1297 54.6462 51.2 54.6462 51.1297 54.5759ZM47.8945 54.4352L47.1209 54.9978C47.0506 55.0682 46.9803 55.1385 46.9099 55.0682C46.8396 54.9978 46.8396 54.9275 46.8396 54.7868L46.488 53.4506C46.488 53.3802 46.488 53.3099 46.488 53.3099C46.488 53.3099 46.488 53.3099 46.5583 53.3099L47.8242 54.0132C47.8946 54.0835 47.9649 54.0835 48.0352 54.1539C48.1055 54.2945 48.0352 54.2945 47.8945 54.4352Z" fill="#111111"></path> <path fill-rule="evenodd" clip-rule="evenodd" d="M27.3581 13.5737L27.2175 12.8704C27.1471 12.5891 26.8658 12.4484 26.5845 12.4484L26.0219 12.6594L25.8812 12.0264C25.8109 11.7451 25.5296 11.5341 25.2482 11.6045L24.5449 11.7451C24.2636 11.8154 24.0526 12.0968 24.123 12.3781L24.2636 13.011L23.701 13.1517C23.4197 13.222 23.2087 13.5034 23.279 13.7847L23.4197 14.488C23.49 14.7693 23.7713 14.91 24.0526 14.91L26.9361 14.277C27.2175 14.1363 27.4285 13.855 27.3581 13.5737ZM25.5296 14.488C25.1076 14.5583 24.7559 14.3473 24.6153 13.9253C24.5449 13.5034 24.7559 13.1517 25.1779 13.011C25.5999 12.9407 25.9515 13.1517 26.0922 13.5737C26.1625 13.9957 25.9515 14.3473 25.5296 14.488Z" fill="#111111"></path> <path fill-rule="evenodd" clip-rule="evenodd" d="M33.4066 11.8155H32.8439V11.1825C32.8439 10.9012 32.633 10.6902 32.3516 10.6902H31.6483C31.367 10.6902 31.156 10.9012 31.156 11.1825V11.8155H30.5231C30.2418 11.8155 30.0308 12.0264 30.0308 12.3078V13.0111C30.0308 13.2924 30.2418 13.5034 30.5231 13.5034H33.4769C33.7582 13.5034 33.9692 13.2924 33.9692 13.0111V12.3078C33.8989 12.0264 33.6879 11.8155 33.4066 11.8155ZM31.9297 13.5034C31.5077 13.5034 31.156 13.1517 31.156 12.7297C31.156 12.3078 31.5077 11.9561 31.9297 11.9561C32.3516 11.9561 32.7033 12.3078 32.7033 12.7297C32.633 13.1517 32.3516 13.5034 31.9297 13.5034Z" fill="#111111"></path> <path fill-rule="evenodd" clip-rule="evenodd" d="M40.1583 13.1517L39.5957 13.011L39.7363 12.3781C39.8067 12.0968 39.5957 11.8154 39.3144 11.7451L38.6111 11.6045C38.3298 11.5341 38.0484 11.7451 37.9781 12.0264L37.8374 12.6594L37.2748 12.5187C36.9935 12.4484 36.7122 12.6594 36.6418 12.9407L36.5012 13.644C36.4309 13.9253 36.6418 14.2066 36.9232 14.277L39.8067 14.9099C40.088 14.9803 40.3693 14.7693 40.4396 14.488L40.5803 13.7847C40.5803 13.433 40.4396 13.222 40.1583 13.1517ZM39.244 13.9253C39.1737 14.3473 38.7517 14.5583 38.3298 14.488C37.9078 14.4176 37.6968 13.9957 37.7671 13.5737C37.8374 13.1517 38.2594 12.9407 38.6814 13.011C39.033 13.0814 39.3144 13.5034 39.244 13.9253Z" fill="#111111"></path> <path fill-rule="evenodd" clip-rule="evenodd" d="M45.0812 14.4175C44.8702 14.2768 44.5186 14.3472 44.3779 14.6285L44.0263 15.1911L43.534 14.9098C43.323 14.7691 42.9713 14.8395 42.8307 15.1208L42.479 15.7538C42.3384 15.9648 42.4087 16.3164 42.69 16.4571L43.8153 17.1604C44.0263 17.301 44.3779 17.2307 44.5186 16.9494L44.8702 16.3867C45.0109 16.1054 45.1516 15.8944 45.1516 15.8944L45.7142 14.9098L45.0812 14.4175ZM43.8856 16.879C43.534 16.6681 43.3933 16.2461 43.6043 15.8944C43.8153 15.5428 44.2373 15.4021 44.5889 15.6131L43.8856 16.879Z" fill="#111111"></path> <path fill-rule="evenodd" clip-rule="evenodd" d="M21.4505 15.6131L21.0988 14.9801C20.9582 14.7691 20.6065 14.6285 20.3956 14.7691L19.9032 15.0505L19.5516 14.4878C19.4109 14.2768 19.0593 14.1362 18.8483 14.2768L18.2153 14.7691L18.778 15.7538C18.778 15.7538 18.9186 15.9648 19.0593 16.2461L19.4109 16.8087C19.5516 17.0197 19.9032 17.1604 20.1142 17.0197L21.2395 16.3164C21.5208 16.1757 21.5912 15.8241 21.4505 15.6131ZM20.0439 16.879L19.2703 15.6131C19.6219 15.4021 20.0439 15.5428 20.2549 15.8944C20.4659 16.2461 20.3956 16.6681 20.0439 16.879Z" fill="#111111"></path> <path fill-rule="evenodd" clip-rule="evenodd" d="M15.0506 13.9955C14.9803 13.9252 14.9803 13.9252 14.91 13.9955C14.8396 14.0659 14.8396 14.1362 14.8396 14.1362C14.8396 14.2065 14.7693 14.2768 14.6286 14.2065C13.644 13.9252 12.5187 13.5735 12.5187 13.5735C12.4484 13.5032 12.5187 13.3626 12.5187 13.0812C12.5187 12.8702 12.3781 12.5186 12.0264 12.2373C11.7451 12.0263 10.9012 11.3933 10.0572 12.3779C9.77589 12.6593 9.5649 13.0109 9.28358 13.2922C9.07259 13.5735 9.00226 13.5735 8.79127 13.7845C8.72094 13.8549 8.72094 13.9252 8.79127 13.9252C9.00226 14.0659 9.21325 13.4329 9.84622 13.9955L12.3078 16.1054C13.0111 16.7384 12.5187 16.879 12.6594 17.09C12.8001 17.1604 12.8001 17.09 12.8704 17.0197C13.0814 16.8087 13.222 16.5274 13.433 16.3164C13.5737 16.1054 13.7144 16.0351 13.7847 15.9648C13.855 15.8944 13.855 15.8241 13.855 15.7538C13.644 15.5428 13.5034 16.2461 12.9407 15.6834L11.9561 14.9801C11.7451 14.8395 11.6748 14.7692 11.8858 14.5582C12.0968 14.3472 12.1671 14.2768 12.5187 14.4175L13.7144 14.8395C14.1363 14.9801 14.6286 15.1208 14.91 14.7691C15.1209 14.5582 15.2616 14.2065 15.0506 13.9955ZM11.7451 14.2768C11.6045 14.4175 11.4638 14.5582 11.3231 14.4878L10.1979 13.5032C9.84622 13.2219 9.98688 13.0812 10.1275 12.9406C10.5495 12.5186 11.1122 12.5889 11.6748 13.0812C12.0264 13.2922 12.3078 13.5735 11.7451 14.2768Z" fill="#111111"></path> <path fill-rule="evenodd" clip-rule="evenodd" d="M26.7957 8.15828C26.7254 7.94729 26.5144 8.29893 26.1627 7.87696L23.2792 4.07915C23.1386 3.86816 23.1386 3.86816 23.0682 3.86816C22.9979 3.86816 22.9979 4.00882 22.9979 4.14948L22.8572 8.86157C22.8572 9.28355 22.5759 9.35388 22.5759 9.49454C22.5759 9.56487 22.7166 9.56487 22.7869 9.49454C22.9276 9.42421 23.1386 9.35388 23.2792 9.28355C23.4902 9.21322 23.6309 9.21322 23.8419 9.14289C23.9825 9.07256 24.1232 9.07256 24.1232 8.9319C24.0529 8.72091 23.4902 9.07256 23.3496 8.58025C23.2089 8.50992 23.2089 8.2286 23.2089 8.08794C23.2089 7.59564 23.2792 7.52531 23.4199 7.45498L24.5452 7.10333C24.6858 7.033 24.7562 7.10333 25.1078 7.59564C25.2485 7.7363 25.3188 7.87696 25.3891 8.01762C25.5298 8.43959 25.1078 8.50992 25.1781 8.72091C25.1781 8.79124 25.2485 8.79124 25.3891 8.72091C25.5298 8.65058 25.7408 8.58025 26.0221 8.50992C26.3737 8.36926 26.5847 8.36926 26.7254 8.29893C26.7957 8.29893 26.866 8.29893 26.7957 8.15828ZM24.1935 6.82201L23.4199 7.033C23.3496 7.033 23.2089 7.10333 23.2089 7.033C23.2089 6.96267 23.2089 6.82201 23.2089 6.75168V5.34509C23.2089 5.27476 23.2089 5.27476 23.2089 5.20443C23.2089 5.20443 23.2089 5.20443 23.2792 5.27476L24.1232 6.40003C24.1935 6.47036 24.2638 6.54069 24.2638 6.61102C24.4045 6.75168 24.3342 6.75168 24.1935 6.82201Z" fill="#111111"></path> <path fill-rule="evenodd" clip-rule="evenodd" d="M61.3978 30.6637C61.3978 30.5934 61.2572 30.5934 61.1165 30.5231L56.5451 29.3978C56.1231 29.2571 56.1231 28.9758 55.9824 28.9758C55.9121 28.9758 55.9121 29.0462 55.9121 29.1868C55.9121 29.3275 55.9824 29.5385 55.9824 29.6791C55.9824 29.8901 55.9824 30.0308 55.9824 30.2418C55.9824 30.3824 55.9824 30.5231 56.1231 30.5231C56.3341 30.5231 56.1231 29.8901 56.6857 29.8198C56.8264 29.8198 57.1077 29.8901 57.2484 29.8901C57.7407 29.9604 57.811 30.1011 57.811 30.1714L57.9517 31.2967C57.9517 31.4374 57.8813 31.5077 57.3187 31.7187C57.1077 31.789 56.9671 31.8593 56.8264 31.8593C56.4044 31.9297 56.4044 31.5077 56.1934 31.5077C56.0528 31.5077 56.1231 31.578 56.1231 31.7187C56.1231 31.8593 56.1934 32.0703 56.1934 32.3517C56.2638 32.7736 56.1934 32.9143 56.2638 33.1253C56.2638 33.2659 56.2638 33.3363 56.4044 33.3363C56.6154 33.3363 56.3341 33.055 56.8264 32.7736L61.1868 30.7341C61.3978 30.7341 61.3978 30.6637 61.3978 30.6637ZM59.9209 30.5934L58.655 31.2264C58.5846 31.2967 58.5143 31.2967 58.3737 31.2967C58.3033 31.2967 58.3033 31.2264 58.3033 31.0857L58.233 30.3121C58.233 30.1714 58.233 30.1011 58.3033 30.1011C58.3737 30.1011 58.5143 30.1011 58.5846 30.1714L59.9209 30.5231C59.9912 30.5231 59.9912 30.5231 59.9209 30.5934C59.9912 30.5934 59.9912 30.5934 59.9209 30.5934Z" fill="#111111"></path> <path fill-rule="evenodd" clip-rule="evenodd" d="M50.778 26.5143C50.567 25.811 49.8637 25.6 49.0901 25.8813C48.3868 26.0923 48.0351 26.6549 48.2461 27.2176C48.5274 28.1319 49.4417 28.0615 49.934 27.9209C50.7077 27.7099 50.989 27.0769 50.778 26.5143ZM49.723 27.6396C49.1604 27.8505 48.6681 27.7802 48.4571 27.2879C48.2461 26.7956 48.9494 26.3736 49.4417 26.1626C49.934 26.022 50.4263 26.022 50.6373 26.5143C50.778 26.8659 50.4967 27.3582 49.723 27.6396Z" fill="#111111"></path> <path fill-rule="evenodd" clip-rule="evenodd" d="M49.7934 24.1934C49.7231 23.9824 49.5824 23.8417 49.5121 23.6307C49.4417 23.4197 49.4417 23.4197 49.3714 23.2791C49.3714 23.2087 49.3011 23.2087 49.3011 23.2087C49.1604 23.2791 49.4417 23.4901 49.0901 23.701L47.6132 24.4043C47.1912 24.6153 47.1912 24.334 47.1209 24.4043C47.0505 24.4043 47.1209 24.4747 47.1209 24.545C47.1912 24.6857 47.2615 24.8263 47.3318 24.967C47.4022 25.1076 47.4022 25.178 47.4022 25.178C47.4022 25.2483 47.4725 25.2483 47.4725 25.2483C47.6132 25.178 47.3318 24.967 47.6835 24.8263L48.2461 24.545C48.3868 24.4747 48.3868 24.4747 48.4571 24.6153C48.5275 24.756 48.5275 24.8263 48.3868 24.967L47.9648 25.4593C47.8242 25.6 47.6835 25.8109 47.7538 26.0219C47.8242 26.1626 47.9648 26.3032 48.0351 26.2329C48.0351 26.2329 48.1055 26.1626 48.0351 26.1626L47.9648 26.0923C47.9648 26.0923 47.8945 26.0219 47.9648 25.9516C48.3165 25.5296 48.6681 25.1076 48.6681 25.1076C48.6681 25.1076 48.7384 25.178 48.8791 25.178C49.0198 25.2483 49.1604 25.2483 49.3714 25.178C49.6527 25.1076 50.0747 24.8263 49.7934 24.1934ZM49.2308 24.8967C49.0198 24.967 48.8791 25.0373 48.6681 24.6153C48.5978 24.545 48.5978 24.4043 48.6681 24.4043L49.3011 24.123C49.5121 24.0527 49.5121 24.123 49.5824 24.1934C49.7231 24.4747 49.5824 24.756 49.2308 24.8967Z" fill="#111111"></path> <path fill-rule="evenodd" clip-rule="evenodd" d="M51.5517 30.8045C51.411 30.8045 51.5517 31.1561 51.1297 31.0858L49.5121 30.9451C49.0901 30.8748 49.2308 30.6638 49.0901 30.6638C49.0198 30.6638 49.0198 30.7341 49.0198 30.7341C49.0198 30.8748 49.0198 31.0155 49.0198 31.2265C49.0198 31.3671 48.9495 31.4374 48.9495 31.5078C48.9495 31.5781 48.9495 31.5781 49.0198 31.5781C49.1605 31.5781 49.0198 31.2968 49.4418 31.2968L50.0747 31.3671C50.2154 31.3671 50.2154 31.3671 50.2154 31.5078C50.2154 31.6484 50.1451 31.7188 50.0044 31.7891L49.3715 32.0001C49.1605 32.0704 48.8792 32.1407 48.8792 32.4221C48.8792 32.5627 48.9495 32.7737 49.0198 32.7737C49.0198 32.7737 49.0901 32.7737 49.0901 32.7034V32.6331C49.0901 32.6331 49.0901 32.5627 49.1605 32.4924C49.6528 32.2814 50.2154 32.1407 50.2154 32.1407C50.2857 32.1407 50.2857 32.2111 50.3561 32.3517C50.4264 32.4221 50.5671 32.5627 50.778 32.5627C50.9187 32.5627 51.4813 32.5627 51.5517 31.9298C51.5517 31.7188 51.5517 31.5078 51.622 31.2968C51.5517 31.0155 51.5517 31.0155 51.5517 30.8045ZM51.3407 31.6484C51.3407 31.9298 51.0594 32.0704 50.6374 32.0704C50.4264 32.0704 50.2154 32.0001 50.2857 31.5781C50.2857 31.5078 50.2857 31.3671 50.4264 31.3671L51.1297 31.4374C51.3407 31.5078 51.3407 31.5781 51.3407 31.6484Z" fill="#111111"></path> <path fill-rule="evenodd" clip-rule="evenodd" d="M17.5825 22.8572C17.5121 22.7869 17.5121 22.9979 17.2308 22.9979L14.9803 22.7166C14.8396 22.7166 14.8396 22.7166 14.8396 22.7166C14.8396 22.7166 14.8396 22.7869 14.9099 22.8572L16.3165 24.6155C16.4572 24.7561 16.3869 24.8968 16.3869 24.9671C16.4572 24.9671 16.4572 24.9671 16.4572 24.8968C16.5275 24.8264 16.5275 24.7561 16.5978 24.6858C16.6682 24.6155 16.6682 24.5451 16.7385 24.4748C16.7385 24.4045 16.8088 24.3341 16.7385 24.3341C16.6682 24.2638 16.5275 24.6155 16.3165 24.4748C16.2462 24.4045 16.1759 24.3341 16.1055 24.2638C15.9649 24.1231 15.9649 24.0528 15.9649 23.9825L16.2462 23.4198C16.3165 23.3495 16.3165 23.3495 16.5978 23.4198C16.6682 23.4198 16.7385 23.4199 16.8088 23.4902C17.0198 23.5605 16.8792 23.7715 16.9495 23.8418C17.0198 23.8418 17.0198 23.8418 17.0198 23.7715C17.0901 23.7012 17.0901 23.5605 17.1605 23.4902C17.2308 23.2792 17.3011 23.2792 17.3715 23.1385C17.6528 22.9275 17.6528 22.9275 17.5825 22.8572ZM16.1759 23.3495L15.9649 23.7012C15.9649 23.7715 15.8945 23.7715 15.8945 23.7715C15.8242 23.7715 15.8242 23.7012 15.8242 23.7012L15.4022 23.2089C15.4022 23.1385 15.4022 23.1385 15.4022 23.1385C15.4022 23.1385 15.4022 23.1385 15.4726 23.1385L16.1055 23.2089C16.1759 23.2089 16.1759 23.2089 16.2462 23.2089C16.2462 23.2792 16.2462 23.2792 16.1759 23.3495Z" fill="#111111"></path> <path d="M42.1978 22.6462H41.9868H21.0286V34.1803C21.0286 39.3144 21.3099 43.5342 25.2483 47.4726C27.5692 49.7935 29.1165 50.9188 31.7187 52.677L31.8593 52.8177L32.1407 53.0287L32.422 52.8177C33.1956 52.1847 33.8989 51.6221 34.6022 51.1298C36.0088 50.1451 37.2044 49.2309 38.7516 47.4023C42.4791 42.9715 43.1121 39.5957 43.1121 34.1803V22.6462H42.1978ZM37.978 46.8396C36.5011 48.5979 35.3758 49.4418 34.0396 50.3561C33.3363 50.8484 32.9143 51.1298 32.0703 51.833C29.6088 50.1451 28.0615 49.0902 25.8813 46.8396C22.2242 43.1122 21.9429 39.244 21.9429 34.1803V23.5605H42.1978V34.1803C42.1978 39.5254 41.5648 42.6199 37.978 46.8396Z" fill="#111111"></path> <path fill-rule="evenodd" clip-rule="evenodd" d="M54.2946 11.3232L53.943 10.6902L53.5913 11.7451L53.8023 12.1671L54.2946 11.3232Z" fill="#111111"></path> <path fill-rule="evenodd" clip-rule="evenodd" d="M27.9913 7.10338C28.2023 7.94733 27.4287 7.73634 27.499 8.01766C27.499 8.15832 27.6397 8.15832 27.71 8.15832C27.921 8.08799 28.132 8.01766 28.4836 7.94733C28.9056 7.877 29.0462 7.877 29.3276 7.80667C29.4682 7.73634 29.6089 7.73634 29.6089 7.59568C29.5386 7.3847 28.9056 7.73634 28.6946 6.89239L27.9913 3.65722C27.921 3.30557 27.9913 3.23524 28.2023 3.23524L28.6946 3.16492C29.3276 3.02426 29.3276 3.86821 29.5386 3.79788C29.6792 3.79788 29.5386 3.51656 29.5386 3.44623L29.3276 2.81327C29.3276 2.74294 29.2572 2.67261 29.1869 2.67261C28.6243 2.81327 28.2726 2.8836 27.4287 3.09459C26.5847 3.30557 26.1627 3.30557 25.6704 3.44623C25.6001 3.44623 25.6001 3.58689 25.6001 3.65722L25.7408 4.64184C25.7408 4.71217 25.7408 4.92316 25.8814 4.85283C26.1627 4.7825 25.7408 3.86821 26.4441 3.72755L26.9364 3.58689C27.1473 3.51656 27.2177 3.58689 27.288 3.93854L27.9913 7.10338Z" fill="#111111"></path> <path fill-rule="evenodd" clip-rule="evenodd" d="M20.2549 9.84612C20.6769 10.6197 19.9033 10.6197 20.044 10.9011C20.1143 11.0417 20.1846 10.9714 20.3253 10.9714C20.5363 10.8307 20.6769 10.7604 21.0286 10.5494C21.3802 10.3384 21.5912 10.3384 21.8022 10.1978C21.9429 10.1274 22.0835 10.0571 22.0132 9.91645C21.9429 9.70546 21.3802 10.2681 20.9582 9.49447L19.411 6.54063C19.2703 6.25931 19.2703 6.18898 19.4813 6.04832L19.9033 5.83733C20.4659 5.48568 20.6769 6.32964 20.8879 6.18898C21.0286 6.11865 20.8176 5.90766 20.7473 5.83733L20.3956 5.27469C20.3253 5.20436 20.3253 5.13403 20.2549 5.13403C19.7626 5.41535 19.411 5.62634 18.6374 5.97799C17.8637 6.39997 17.5121 6.54063 17.0198 6.75162C16.9495 6.82195 17.0198 6.89227 17.0198 6.9626L17.3714 7.87689C17.3714 7.94722 17.4418 8.15821 17.5824 8.08788C17.7934 7.94722 17.2308 7.17359 17.7934 6.89227L18.2154 6.68129C18.4264 6.54063 18.4967 6.54063 18.6374 6.89227L20.2549 9.84612Z" fill="#111111"></path> <path fill-rule="evenodd" clip-rule="evenodd" d="M28.9758 55.5605L28.2725 55.6309L29.0461 56.4045L29.5384 56.3342L28.9758 55.5605Z" fill="#111111"></path> <path d="M85.0286 5.62646C85.3099 5.69679 85.5209 5.69679 85.8022 5.69679C86.0132 5.69679 86.2242 5.62646 86.3649 5.62646C86.2242 7.45504 86.0836 10.8309 86.0132 13.644C85.9429 17.0902 83.9737 19.2001 80.5275 19.2001C76.7297 19.2001 74.9715 17.4419 74.9715 13.644C74.9715 12.4484 75.0418 11.5342 75.0418 10.6199C75.0418 8.50998 74.9715 6.75174 74.9011 5.62646C75.1824 5.69679 75.6044 5.69679 75.8857 5.69679C76.1671 5.69679 76.4484 5.62646 76.7297 5.62646C76.589 6.75174 76.5187 9.42427 76.5187 12.2375C76.5187 14.8397 76.5187 18.2858 80.8088 18.2858C85.0286 18.2858 85.0286 14.3473 85.0286 11.8858C85.0989 8.22866 85.0989 6.40009 85.0286 5.62646Z" fill="#111111"></path> <path d="M102.189 19.1999C99.2351 15.7537 95.7187 12.0263 92.4132 8.50979C92.4132 9.21308 92.3428 10.4087 92.3428 12.4482C92.3428 14.1362 92.4132 18.2153 92.4835 18.9889C92.2725 18.9186 92.0615 18.9186 91.7802 18.9186C91.5692 18.9186 91.2879 18.9889 91.0769 18.9889C91.2176 18.0746 91.4989 13.1515 91.4989 10.6197C91.4989 8.15814 91.4989 6.32957 91.4286 5.41528H91.7099C94.8747 8.86144 99.1648 13.5032 101.486 15.8944C101.486 12.4482 101.486 8.65045 101.345 5.6966C101.556 5.76693 101.767 5.76693 101.978 5.76693C102.189 5.76693 102.4 5.6966 102.611 5.6966C102.47 6.82188 102.33 10.69 102.33 12.1669C102.33 14.1362 102.4 18.4263 102.4 19.2702H102.189V19.1999Z" fill="#111111"></path> <path d="M107.815 10.6199C107.815 8.93196 107.745 7.31438 107.675 5.62646C108.026 5.69679 108.308 5.69679 108.589 5.69679C108.87 5.69679 109.222 5.62646 109.503 5.62646C109.433 7.31438 109.363 9.00229 109.363 10.6199V13.9254C109.363 15.6133 109.433 17.2309 109.503 18.9188C109.152 18.8484 108.87 18.8484 108.589 18.8484C108.308 18.8484 107.956 18.9188 107.675 18.9188C107.745 17.2309 107.815 15.6133 107.815 13.9254V10.6199Z" fill="#111111"></path> <path d="M112.809 5.62646C113.16 5.69679 113.512 5.69679 113.793 5.69679C114.145 5.69679 114.497 5.62646 114.778 5.62646C115.903 9.07262 117.591 13.1517 119.209 17.0199C120.615 13.9254 122.796 8.15833 123.569 5.62646C123.78 5.69679 124.062 5.69679 124.273 5.69679C124.484 5.69679 124.765 5.62646 124.976 5.62646C122.936 10.0572 121.108 14.488 119.42 18.9891C119.209 18.9188 118.998 18.9188 118.787 18.9188C118.576 18.9188 118.295 18.9891 118.154 18.9891C117.099 15.7539 114.708 10.0572 112.809 5.62646Z" fill="#111111"></path> <path d="M128.422 10.6199C128.422 8.93196 128.352 7.31438 128.281 5.62646C129.407 5.69679 130.602 5.69679 131.727 5.69679C132.853 5.69679 134.048 5.62646 135.174 5.62646C135.103 5.83745 135.103 6.04844 135.103 6.1891C135.103 6.40009 135.103 6.54075 135.174 6.75174C133.556 6.61108 132.571 6.47042 130.11 6.47042C130.11 7.31438 130.04 7.94734 130.04 8.93196C130.04 9.91658 130.04 10.9715 130.04 11.4638C132.29 11.4638 133.626 11.3935 134.752 11.2528C134.681 11.4638 134.681 11.6748 134.681 11.8858C134.681 12.0968 134.681 12.2375 134.752 12.4484C133.415 12.3078 130.954 12.3078 130.04 12.3078C130.04 12.8001 130.04 13.2221 130.04 15.121C130.04 16.5979 130.04 17.5122 130.11 18.0045C131.798 18.0045 134.119 18.0045 135.314 17.7232C135.244 17.9342 135.244 18.1452 135.244 18.3561C135.244 18.4968 135.244 18.7078 135.314 18.9188C134.189 18.8484 132.993 18.8484 131.868 18.8484C130.672 18.8484 129.547 18.9188 128.352 18.9188C128.422 17.2309 128.492 15.543 128.492 13.9254V10.6199H128.422Z" fill="#111111"></path> <path d="M139.323 10.6199C139.323 8.93196 139.253 7.31438 139.182 5.62646C139.886 5.69679 140.659 5.69679 141.363 5.69679C142.066 5.69679 142.84 5.62646 143.543 5.62646C145.723 5.62646 147.552 6.40009 147.552 8.65064C147.552 11.1122 145.09 12.1671 143.613 12.3078C144.527 13.5034 147.763 17.6528 148.888 18.9188C148.536 18.8484 148.114 18.8484 147.692 18.8484C147.341 18.8484 146.919 18.9188 146.567 18.9188C145.793 17.7232 143.191 14.2067 141.574 12.5188H140.87V13.9254C140.87 15.6133 140.941 17.2309 141.011 18.9188C140.659 18.8484 140.378 18.8484 140.097 18.8484C139.815 18.8484 139.464 18.9188 139.182 18.9188C139.253 17.2309 139.323 15.6133 139.323 13.9254V10.6199ZM140.87 11.7451C141.222 11.8155 141.644 11.8155 142.136 11.8155C143.754 11.8155 145.793 11.1825 145.793 8.86163C145.793 6.82207 144.105 6.32976 142.769 6.32976C141.855 6.32976 141.292 6.40009 140.87 6.40009C140.8 7.80669 140.73 9.21328 140.73 10.6199V11.7451H140.87Z" fill="#111111"></path> <path d="M151.982 16.3867C152.404 17.301 153.389 18.4263 155.006 18.4263C156.694 18.4263 157.749 17.1603 157.749 15.6131C157.749 12.0263 151.631 13.5735 151.631 9.07242C151.631 6.89221 153.248 5.41528 155.85 5.41528C157.046 5.41528 157.96 5.6966 158.734 6.32957C158.523 6.75155 158.382 7.24385 158.242 7.94715H158.031C157.749 7.24385 157.187 6.11858 155.71 6.11858C154.233 6.11858 153.248 7.1032 153.248 8.50979C153.248 12.0966 159.297 10.6197 159.297 14.9098C159.297 17.301 157.538 19.2702 154.585 19.2702C152.967 19.2702 152.053 18.7076 151.42 18.1449C151.631 17.5823 151.701 17.1603 151.771 16.457H151.982V16.3867Z" fill="#111111"></path> <path d="M163.657 10.6199C163.657 8.93196 163.587 7.31438 163.517 5.62646C163.868 5.69679 164.15 5.69679 164.431 5.69679C164.712 5.69679 165.064 5.62646 165.345 5.62646C165.275 7.31438 165.205 9.00229 165.205 10.6199V13.9254C165.205 15.6133 165.275 17.2309 165.345 18.9188C164.994 18.8484 164.712 18.8484 164.431 18.8484C164.15 18.8484 163.798 18.9188 163.517 18.9188C163.587 17.2309 163.657 15.6133 163.657 13.9254V10.6199Z" fill="#111111"></path> <path d="M74.9715 30.3823C74.9715 28.6944 74.9011 27.0768 74.8308 25.3889C75.4638 25.4592 76.0967 25.4592 76.7297 25.4592C77.3627 25.4592 78.5583 25.3889 79.1209 25.3889C80.2462 25.3889 83.3407 25.4592 83.3407 28.6241C83.3407 31.9999 79.9649 32.7032 78.1363 32.7032C77.5737 32.7032 77.0814 32.7032 76.5891 32.6329V33.6878C76.5891 35.3757 76.6594 36.9933 76.7297 38.6812C76.3781 38.6109 76.0967 38.6109 75.8154 38.6109C75.5341 38.6109 75.1825 38.6812 74.9011 38.6812C74.9715 36.9933 75.0418 35.3757 75.0418 33.6878V30.3823H74.9715ZM76.5891 31.7889C77.011 31.8592 77.5033 31.9296 77.9957 31.9296C79.5429 31.9296 81.5825 31.2966 81.5825 28.6944C81.5825 26.5142 80.3165 26.0219 78.3473 26.0219H76.5891V31.7889Z" fill="#111111"></path> <path d="M92.6946 25.1077C96.9847 25.1077 99.9386 27.6395 99.9386 32C99.9386 36.3604 96.9847 38.8923 92.6946 38.8923C88.4749 38.8923 85.4507 36.3604 85.4507 32C85.521 27.6395 88.4749 25.1077 92.6946 25.1077ZM92.6946 25.811C89.6705 25.811 87.3496 27.7099 87.3496 32C87.3496 36.2901 89.6705 38.189 92.6946 38.189C95.7188 38.189 98.0397 36.2901 98.0397 32C98.0397 27.7099 95.7891 25.811 92.6946 25.811Z" fill="#111111"></path> <path d="M103.174 30.3823C103.174 28.6944 103.103 27.0768 103.033 25.3889C103.385 25.4592 103.666 25.4592 103.947 25.4592C104.229 25.4592 104.58 25.3889 104.862 25.3889C104.791 27.0768 104.721 28.7647 104.721 30.3823C104.721 33.6175 104.791 35.9384 104.791 37.8373C106.62 37.8373 108.167 37.8373 110.136 37.5559C110.066 37.7669 110.066 37.9779 110.066 38.1186C110.066 38.3296 110.136 38.5406 110.136 38.6812C108.941 38.6109 107.745 38.6109 106.549 38.6109C105.354 38.6109 104.158 38.6812 102.963 38.6812C103.033 36.9933 103.103 35.3757 103.103 33.6878V30.3823H103.174Z" fill="#111111"></path> <path d="M113.653 30.3823C113.653 28.6944 113.583 27.0768 113.512 25.3889C113.864 25.4592 114.145 25.4592 114.426 25.4592C114.708 25.4592 115.059 25.3889 115.341 25.3889C115.27 27.0768 115.2 28.7647 115.2 30.3823V33.6878C115.2 35.3757 115.27 36.9933 115.341 38.6812C114.989 38.6109 114.708 38.6109 114.426 38.6109C114.145 38.6109 113.794 38.6812 113.512 38.6812C113.583 36.9933 113.653 35.3757 113.653 33.6878V30.3823Z" fill="#111111"></path> <path d="M122.725 30.3823C122.725 29.0461 122.725 27.7098 122.655 26.3735C121.319 26.3735 119.631 26.4439 118.506 26.5845C118.576 26.3735 118.576 26.1626 118.576 25.9516C118.576 25.7406 118.506 25.5999 118.506 25.3186C120.194 25.3889 121.811 25.3889 123.499 25.3889C125.187 25.3889 126.804 25.3186 128.492 25.3186C128.422 25.5296 128.422 25.7406 128.422 25.9516C128.422 26.1626 128.492 26.3735 128.492 26.5845C127.437 26.4439 125.679 26.3735 124.343 26.3735C124.273 27.7098 124.273 29.0461 124.273 30.3823V33.6878C124.273 35.3757 124.343 36.9933 124.413 38.6812C124.062 38.6109 123.78 38.6109 123.499 38.6109C123.218 38.6109 122.866 38.6812 122.585 38.6812C122.655 36.9933 122.725 35.3757 122.725 33.6878V30.3823Z" fill="#111111"></path> <path d="M152.053 37.8373C151.56 38.2593 149.943 38.9626 148.044 38.9626C143.965 38.9626 141.011 36.4307 141.011 32.0703C141.011 27.7098 143.965 25.178 148.255 25.178C149.943 25.178 151.42 25.6 152.475 26.0923C152.264 26.4439 152.123 27.2175 152.053 27.5692L151.912 27.6395C151.349 27.0769 150.083 25.9516 148.255 25.9516C145.231 25.9516 142.91 27.8505 142.91 32.1406C142.91 36.4307 145.231 38.3296 148.255 38.3296C150.083 38.3296 151.42 37.2747 152.193 36.712L152.264 36.7824L152.053 37.8373Z" fill="#111111"></path> <path d="M166.681 38.8923C163.728 35.4461 160.211 31.7187 156.906 28.2022C156.906 28.9055 156.835 30.1011 156.835 32.1406C156.835 33.8285 156.906 37.9077 156.976 38.6813C156.765 38.611 156.554 38.611 156.273 38.611C156.062 38.611 155.78 38.611 155.569 38.6813C155.71 37.767 155.991 32.8439 155.991 30.3121C155.991 27.8505 155.991 26.022 155.921 25.1077H156.202C159.367 28.5538 163.657 33.1956 165.978 35.5868C165.978 32.1406 165.978 28.3428 165.837 25.389C166.048 25.4593 166.259 25.4593 166.47 25.4593C166.681 25.4593 166.892 25.389 167.103 25.389C166.963 26.5143 166.822 30.3824 166.822 31.8593C166.822 33.8285 166.892 38.1187 166.892 38.9626H166.681V38.8923Z" fill="#111111"></path> <path d="M171.394 30.3823C171.394 28.6944 171.323 27.0768 171.253 25.3889C171.605 25.4592 171.886 25.4592 172.167 25.4592C172.449 25.4592 172.8 25.3889 173.081 25.3889C173.011 27.0768 172.941 28.7647 172.941 30.3823V33.6878C172.941 35.3757 173.011 36.9933 173.081 38.6812C172.73 38.6109 172.449 38.6109 172.167 38.6109C171.886 38.6109 171.534 38.6812 171.253 38.6812C171.323 36.9933 171.394 35.3757 171.394 33.6878V30.3823Z" fill="#111111"></path> <path d="M187.64 37.8373C187.147 38.2593 185.53 38.9626 183.631 38.9626C179.552 38.9626 176.598 36.4307 176.598 32.0703C176.598 27.7098 179.552 25.178 183.842 25.178C185.53 25.178 187.007 25.6 188.062 26.0923C187.851 26.4439 187.71 27.2175 187.64 27.5692L187.499 27.6395C186.936 27.0769 185.67 25.9516 183.842 25.9516C180.818 25.9516 178.497 27.8505 178.497 32.1406C178.497 36.4307 180.818 38.3296 183.842 38.3296C185.67 38.3296 187.007 37.2747 187.78 36.712L187.851 36.7824L187.64 37.8373Z" fill="#111111"></path> <path d="M75.1824 50.0747C75.1824 48.3868 75.1121 46.6989 75.0418 45.0813C76.0264 45.1516 77.011 45.1516 77.9253 45.1516C78.9099 45.1516 79.8945 45.0813 80.8088 45.0813C85.3099 45.0813 87.2088 47.4725 87.2088 51.4813C87.2088 56.6154 83.2 58.4439 80.1758 58.4439C79.3319 58.4439 78.4879 58.3736 77.5736 58.3736C76.7297 58.3736 75.8857 58.4439 74.9714 58.4439C75.0418 56.756 75.1121 55.1384 75.1121 53.4505V50.0747H75.1824ZM76.7297 53.3802C76.7297 54.7165 76.8 56.1231 76.8703 57.4593C77.433 57.6 78.4176 57.6703 79.4022 57.6703C82.2154 57.6703 85.3099 56.545 85.3099 51.4813C85.3099 46.9802 82.989 45.9253 79.8242 45.9253C78.6989 45.9253 77.644 45.9956 76.8703 46.1362C76.8 47.4022 76.7297 48.7384 76.7297 50.145V53.3802Z" fill="#111111"></path> <path d="M89.6001 50.0044C89.6001 48.3165 89.5298 46.6286 89.4595 45.011C90.6551 45.0813 91.7804 45.0813 92.9056 45.0813C94.1012 45.0813 95.2265 45.011 96.3518 45.011C96.2814 45.222 96.2814 45.433 96.2814 45.5736C96.2814 45.7846 96.2814 45.9956 96.3518 46.1363C94.7342 45.9956 93.7496 45.8549 91.288 45.8549C91.288 46.6989 91.2177 47.3319 91.2177 48.3165C91.2177 49.3011 91.2177 50.356 91.2177 50.8483C93.4683 50.8483 94.8045 50.778 95.9298 50.6374C95.8594 50.8483 95.8595 51.0593 95.8595 51.2703C95.8595 51.4813 95.8594 51.6923 95.9298 51.833C94.5935 51.6923 92.132 51.622 91.2177 51.622C91.2177 52.1143 91.2177 52.5363 91.2177 54.4352C91.2177 55.9121 91.2177 56.8264 91.288 57.3187C92.9759 57.3187 95.2968 57.3187 96.4924 57.0374C96.4221 57.178 96.4221 57.4593 96.4221 57.6C96.4221 57.811 96.4221 58.022 96.4924 58.1626C95.3671 58.0923 94.1715 58.0923 93.0463 58.0923C91.8507 58.0923 90.7254 58.1626 89.5298 58.1626C89.6001 56.4747 89.6705 54.7868 89.6705 53.1692V50.0044H89.6001Z" fill="#111111"></path> <path d="M109.011 45.0813C109.363 45.1516 109.714 45.1516 109.996 45.1516C110.347 45.1516 110.699 45.0813 110.98 45.0813C112.105 48.5275 113.723 52.6066 115.411 56.4747C116.818 53.3802 118.998 47.6132 119.771 45.0813C119.982 45.1516 120.264 45.1516 120.475 45.1516C120.686 45.1516 120.967 45.0813 121.178 45.0813C119.138 49.5121 117.31 53.9428 115.622 58.4439C115.411 58.3736 115.2 58.3736 114.989 58.3736C114.778 58.3736 114.497 58.3736 114.356 58.4439C113.231 55.2088 110.84 49.5121 109.011 45.0813Z" fill="#111111"></path> <path d="M135.947 50.0747C135.947 48.3868 135.877 46.6989 135.807 45.0813C136.158 45.1516 136.44 45.1516 136.721 45.1516C137.002 45.1516 137.354 45.0813 137.635 45.0813C137.565 46.7692 137.495 48.4571 137.495 50.0747C137.495 53.3099 137.565 55.6307 137.565 57.5296C139.393 57.5296 140.941 57.5296 142.91 57.2483C142.84 57.4593 142.84 57.6 142.84 57.811C142.84 58.0219 142.91 58.2329 142.91 58.3736C141.714 58.3033 140.519 58.3033 139.323 58.3033C138.128 58.3033 136.932 58.3736 135.736 58.3736C135.807 56.6857 135.877 55.0681 135.877 53.3802V50.0747H135.947Z" fill="#111111"></path> <path d="M167.455 58.655C164.501 55.2088 160.985 51.4814 157.679 47.9649C157.679 48.6682 157.609 49.8638 157.609 51.9033C157.609 53.5912 157.679 57.6704 157.75 58.444C157.539 58.3737 157.328 58.3737 157.046 58.3737C156.835 58.3737 156.554 58.444 156.343 58.444C156.484 57.5297 156.765 52.6066 156.765 50.0748C156.765 47.6132 156.765 45.7846 156.695 44.8704H156.976C160.141 48.3165 164.431 52.9583 166.752 55.3495C166.752 51.9033 166.752 48.1055 166.611 45.1517C166.822 45.222 167.033 45.222 167.244 45.222C167.455 45.222 167.666 45.1517 167.877 45.1517C167.736 46.277 167.596 50.1451 167.596 51.622C167.596 53.5912 167.666 57.8814 167.666 58.7253H167.455V58.655Z" fill="#111111"></path> <path d="M181.873 57.5297C181.38 57.8813 179.763 58.655 177.864 58.655C173.785 58.655 170.831 56.1231 170.831 51.7627C170.831 47.4022 173.785 44.8704 178.075 44.8704C179.763 44.8704 181.24 45.2923 182.295 45.7846C182.084 46.1363 181.943 46.9099 181.873 47.2616L181.732 47.3319C181.169 46.6989 179.903 45.644 178.075 45.644C175.051 45.644 172.73 47.5429 172.73 51.833C172.73 56.1231 175.051 58.022 178.075 58.022C179.903 58.022 181.24 56.9671 182.013 56.4044L182.084 56.4747L181.873 57.5297Z" fill="#111111"></path> <path d="M185.248 50.0747C185.248 48.3868 185.178 46.6989 185.108 45.0813C185.459 45.1516 185.741 45.1516 186.022 45.1516C186.303 45.1516 186.655 45.0813 186.936 45.0813C186.866 46.7692 186.796 48.4571 186.796 50.0747V53.3802C186.796 55.0681 186.866 56.6857 186.936 58.3736C186.585 58.3033 186.303 58.3033 186.022 58.3033C185.741 58.3033 185.389 58.3736 185.108 58.3736C185.178 56.6857 185.248 55.0681 185.248 53.3802V50.0747Z" fill="#111111"></path> <path d="M192.703 36.9933C192.703 36.1493 193.407 35.446 194.251 35.446C195.095 35.446 195.798 36.1493 195.798 36.9933C195.798 37.8373 195.095 38.5406 194.251 38.5406C193.407 38.5406 192.703 37.8373 192.703 36.9933Z" fill="#111111"></path> <path d="M197.978 33.3363L195.587 27.5692L193.125 33.3363C192.281 35.3055 191.578 37.2747 191.226 38.5407C190.945 38.4703 190.734 38.4703 190.523 38.4703C190.312 38.4703 190.031 38.5407 189.82 38.5407C191.859 34.0396 193.899 29.5385 195.868 24.967H196.22C198.119 29.4681 201.002 36.5011 202.057 38.5407C201.706 38.4703 201.354 38.4703 201.073 38.4703C200.721 38.4703 200.369 38.5407 200.018 38.5407C199.596 37.2044 198.681 35.0242 197.978 33.3363Z" fill="#111111"></path> <path d="M192.774 56.756C192.774 55.912 193.477 55.2087 194.321 55.2087C195.165 55.2087 195.868 55.912 195.868 56.756C195.868 57.6 195.165 58.3033 194.321 58.3033C193.477 58.2329 192.774 57.6 192.774 56.756Z" fill="#111111"></path> <path d="M198.048 53.0287L195.657 47.2616L193.196 53.0287C192.352 54.9979 191.648 56.9671 191.297 58.2331C191.015 58.1627 190.804 58.1627 190.593 58.1627C190.382 58.1627 190.101 58.2331 189.89 58.2331C191.93 53.732 193.969 49.2309 195.938 44.6594H196.29C198.189 49.1605 201.073 56.1935 202.127 58.2331C201.776 58.1627 201.424 58.1627 201.073 58.1627C200.721 58.1627 200.369 58.2331 200.018 58.2331C199.666 56.8968 198.681 54.7869 198.048 53.0287Z" fill="#111111"></path> <path d="M124.062 56.756C124.062 55.912 124.765 55.2087 125.609 55.2087C126.453 55.2087 127.156 55.912 127.156 56.756C127.156 57.6 126.453 58.3033 125.609 58.3033C124.765 58.2329 124.062 57.6 124.062 56.756Z" fill="#111111"></path> <path d="M129.336 53.0287L126.945 47.2616L124.483 53.0287C123.64 54.9979 122.936 56.9671 122.585 58.2331C122.303 58.1627 122.092 58.1627 121.881 58.1627C121.67 58.1627 121.389 58.2331 121.178 58.2331C123.218 53.732 125.257 49.2309 127.226 44.6594H127.578C129.477 49.1605 132.36 56.1935 133.415 58.2331C133.064 58.1627 132.712 58.1627 132.36 58.1627C132.009 58.1627 131.657 58.2331 131.305 58.2331C130.954 56.8968 130.039 54.7869 129.336 53.0287Z" fill="#111111"></path> <path d="M172.87 10.8308C172.87 9.49456 172.87 8.1583 172.8 6.82204C171.464 6.82204 169.776 6.89236 168.651 7.03302C168.721 6.82204 168.721 6.61105 168.721 6.40006C168.721 6.18907 168.651 6.04841 168.651 5.76709C170.339 5.83742 171.956 5.83742 173.644 5.83742C175.332 5.83742 176.95 5.76709 178.637 5.76709C178.567 5.97808 178.567 6.18907 178.567 6.40006C178.567 6.61105 178.637 6.82204 178.637 7.03302C177.582 6.89236 175.824 6.82204 174.488 6.82204C174.418 8.1583 174.418 9.49456 174.418 10.8308V14.1363C174.418 15.8242 174.488 17.4418 174.558 19.1297C174.207 19.0594 173.925 19.0594 173.644 19.0594C173.363 19.0594 173.011 19.1297 172.73 19.1297C172.8 17.4418 172.87 15.7539 172.87 14.1363V10.8308Z" fill="#111111"></path> <path d="M196.22 10.8308C196.22 9.49456 196.22 8.1583 196.149 6.82204C194.813 6.82204 193.125 6.89236 192 7.03302C192.07 6.82204 192.07 6.61105 192.07 6.40006C192.07 6.18907 192 6.04841 192 5.76709C193.688 5.83742 195.305 5.83742 196.993 5.83742C198.681 5.83742 200.299 5.76709 201.987 5.76709C201.916 5.97808 201.916 6.18907 201.916 6.40006C201.916 6.61105 201.987 6.82204 201.987 7.03302C200.932 6.89236 199.174 6.82204 197.837 6.82204C197.767 8.1583 197.767 9.49456 197.767 10.8308V14.1363C197.767 15.8242 197.837 17.4418 197.908 19.1297C197.556 19.0594 197.275 19.0594 196.993 19.0594C196.712 19.0594 196.36 19.1297 196.079 19.1297C196.149 17.4418 196.22 15.7539 196.22 14.1363V10.8308Z" fill="#111111"></path> <path fill-rule="evenodd" clip-rule="evenodd" d="M151.068 43.9561L148.607 41.4946C148.396 41.2836 148.114 41.0023 147.833 40.7913C147.763 40.721 147.692 40.721 147.552 40.6506C147.2 40.5803 146.848 40.721 146.778 41.0726C146.708 41.2836 146.708 41.4243 146.778 41.5649C146.919 41.7759 147.059 41.8462 147.27 41.9869L150.365 43.8858H151.068V43.9561ZM147.763 45.9957H149.24L151.209 46.066C151.771 46.1364 152.404 46.1364 152.967 46.277C152.967 46.066 152.897 45.855 152.897 45.7144C152.897 45.5034 152.967 45.3627 152.967 45.1517H146.004V58.444H153.108C153.108 58.2331 153.037 58.0221 153.037 57.8814C153.037 57.6704 153.108 57.5298 153.108 57.3188C152.475 57.3891 151.912 57.4594 151.279 57.5298C150.084 57.6001 148.958 57.6704 147.763 57.6001V51.9034H150.787C151.349 51.9034 151.912 51.9737 152.545 51.9737C152.545 51.7627 152.475 51.5517 152.475 51.4111C152.475 51.2001 152.545 51.0594 152.545 50.9188C151.982 50.9188 151.42 50.9891 150.787 50.9891H147.763V45.9957Z" fill="#111111"></path> <path fill-rule="evenodd" clip-rule="evenodd" d="M136.299 24.3341L133.837 21.8725C133.626 21.6615 133.345 21.3802 133.064 21.1692C132.993 21.0989 132.923 21.0989 132.782 21.0286C132.431 20.9582 132.079 21.0989 132.009 21.4505C131.938 21.6615 131.938 21.8022 132.009 22.0132C132.149 22.2242 132.29 22.2945 132.501 22.4352L135.596 24.3341H136.299ZM133.064 26.3736H134.541L136.51 26.444C137.072 26.444 137.705 26.5143 138.268 26.6549C138.268 26.444 138.198 26.233 138.198 26.0923C138.198 25.8813 138.268 25.7407 138.268 25.5297H131.305V38.6813H138.338C138.338 38.4703 138.268 38.2593 138.268 38.1187C138.268 37.9077 138.338 37.767 138.338 37.556C137.705 37.6264 137.143 37.6967 136.51 37.6967C135.314 37.767 134.189 37.8374 132.993 37.767V32.0703H136.018C136.58 32.0703 137.213 32.1407 137.776 32.1407C137.776 31.9297 137.705 31.7187 137.705 31.578C137.705 31.367 137.776 31.2264 137.776 31.0857C137.213 31.0857 136.65 31.156 136.018 31.156H132.993V26.3736H133.064Z" fill="#111111"></path> <path d="M182.295 17.3713C182.295 16.5274 182.998 15.8241 183.842 15.8241C184.686 15.8241 185.389 16.5274 185.389 17.3713C185.389 18.2153 184.686 18.9186 183.842 18.9186C182.927 18.8483 182.295 18.2153 182.295 17.3713ZM185.108 5.41528H185.53L191.086 18.2856L191.437 18.9889C191.086 18.9186 190.734 18.9186 190.453 18.9186C190.101 18.9186 189.749 18.9186 189.398 18.9889L189.257 18.4263L188.343 16.1054L187.358 13.7845L184.897 7.94715L182.365 13.7845C181.662 15.4724 180.958 17.2307 180.466 18.9889C180.255 18.9186 180.044 18.9186 179.763 18.9186C179.552 18.9186 179.27 18.9186 179.059 18.9889L185.108 5.41528Z" fill="#111111"></path></svg>
